<?xml version="1.0" encoding="UTF-8"?> <!-- Generator: Adobe Illustrator 22.1.0, SVG Export Plug-In . SVG Version: 6.00 Build 0) --> <svg xmlns="http://www.w3.org/2000/svg" xmlns:xlink="http://www.w3.org/1999/xlink" x="0px" y="0px" viewBox="0 0 200 200" style="enable-background:new 0 0 200 200;" xml:space="preserve"> <style type="text/css"> .st0{fill:#FFAE00;} </style> <g id="bkg"> </g> <g id="Layer_1"> <g> <path class="st0" d="M85.4,109.9c-3.1,0.3-6.4,0.4-9.7,0.4c-9.2,0-18-1.1-24.7-3.2c-2.9-0.9-5.2-1.9-7.1-3v12.3 c0,5.4,14.2,9.8,31.8,9.8c8.5,0,16.2-1,21.8-2.7c-4.2-4.2-7.6-8.2-9.7-12.1C87,111,86.2,110.4,85.4,109.9z"></path> <path class="st0" d="M75.7,102.8c1.5,0,3,0,4.5-0.1c-0.3-1-0.4-2-0.4-2.9v-4c0-2.5,0.8-5.6,3.8-8.5c-2.6,0.2-5.2,0.3-7.9,0.3 c-9.2,0-18-1.1-24.7-3.2c-2.9-0.9-5.2-1.9-7.1-3V93C43.9,98.4,58.2,102.8,75.7,102.8z"></path> <path class="st0" d="M75.7,80.2c17.5,0,31.8-4.4,31.8-9.8V59.4c0-5.4-14.2-9.8-31.8-9.8c-17.5,0-31.8,4.4-31.8,9.8v10.9 C43.9,75.8,58.2,80.2,75.7,80.2z"></path> <path class="st0" d="M121.7,85.2c-19,0-34.4,4.8-34.4,10.6v4c0,2.3,2.3,4.4,6.2,6.1c2.5,6.8,12.9,15.9,21.5,23.3l0.5,18.4 c0,1.5,2.8,2.8,6.2,2.8c3.4,0,6.2-1.2,6.2-2.8l0.5-18.4c8.6-7.5,19-16.6,21.5-23.3c3.9-1.7,6.2-3.8,6.2-6.1v-4 C156.1,90,140.7,85.2,121.7,85.2z M121.7,100.2c-10.3,0-25.7-2-25.7-4.3c0-2.5,16.4-5,25.7-5c10.3,0,25.7,2.6,25.7,5 C147.4,98.4,131,100.2,121.7,100.2z"></path> </g> </g> </svg> 