<?xml version="1.0" encoding="UTF-8"?> <!-- Generator: Adobe Illustrator 22.1.0, SVG Export Plug-In . SVG Version: 6.00 Build 0) --> <svg xmlns="http://www.w3.org/2000/svg" xmlns:xlink="http://www.w3.org/1999/xlink" id="Layer_1" x="0px" y="0px" viewBox="0 0 185 67" style="enable-background:new 0 0 185 67;" xml:space="preserve"> <style type="text/css"> .st0{fill:#003578;} .st1{fill:#FFFFFF;} </style> <rect class="st0" width="185" height="67"></rect> <path class="st1" d="M156.4,33.2c2.4,0,4.3-0.6,5.5-1.7c1.3-1.1,1.9-2.7,1.9-4.8s-0.6-3.7-1.9-4.8c-1.2-1.1-3.1-1.7-5.6-1.7h-8.6v13 H156.4z M143.9,51c-0.3,0-0.6-0.1-0.9-0.3c-0.2-0.2-0.3-0.5-0.3-0.9V17.2c0-0.4,0.1-0.6,0.3-0.9c0.2-0.2,0.5-0.4,0.9-0.4h12.7 c3.8,0,6.7,0.9,8.9,2.8c2.2,1.8,3.2,4.5,3.2,8s-1.1,6.1-3.2,8c-2.1,1.8-5.1,2.7-8.9,2.7h-8.8v12.5c0,0.3-0.1,0.6-0.4,0.9 c-0.2,0.2-0.5,0.3-0.9,0.3H143.9z M127.4,38.8L120.7,21l-6.8,17.8H127.4z M105.9,51c-0.3,0-0.5-0.1-0.7-0.3 c-0.2-0.2-0.3-0.4-0.3-0.7c0-0.3,0-0.4,0.1-0.5l12.4-32.4c0.3-0.7,0.8-1.1,1.6-1.1h3.4c0.8,0,1.3,0.4,1.6,1.1l12.3,32.4l0.1,0.5 c0,0.3-0.1,0.5-0.3,0.7s-0.4,0.3-0.7,0.3h-2.6c-0.4,0-0.6-0.1-0.8-0.2c-0.2-0.2-0.3-0.4-0.4-0.6l-2.8-7.1h-16.4l-2.8,7.1 c-0.1,0.2-0.2,0.4-0.5,0.6c-0.2,0.2-0.5,0.2-0.8,0.2H105.9z M80.2,51c-0.3,0-0.6-0.1-0.8-0.3c-0.2-0.2-0.3-0.5-0.3-0.9V17.2 c0-0.3,0.1-0.6,0.3-0.8c0.2-0.2,0.5-0.4,0.8-0.4h2.7c0.3,0,0.6,0.1,0.8,0.4c0.2,0.2,0.4,0.5,0.4,0.8v29.5h16.6 c0.4,0,0.7,0.1,0.9,0.3c0.2,0.2,0.4,0.5,0.4,0.9v2c0,0.3-0.1,0.6-0.4,0.9c-0.2,0.2-0.5,0.3-0.9,0.3H80.2z M63.7,38.8L57,21 l-6.8,17.8H63.7z M42.2,51c-0.3,0-0.5-0.1-0.7-0.3c-0.2-0.2-0.3-0.4-0.3-0.7c0-0.3,0-0.4,0-0.5l12.4-32.4c0.3-0.7,0.8-1.1,1.6-1.1 h3.4c0.8,0,1.3,0.4,1.6,1.1l12.3,32.4l0.1,0.5c0,0.3-0.1,0.5-0.3,0.7C72.2,50.9,72,51,71.7,51h-2.5c-0.4,0-0.7-0.1-0.9-0.2 c-0.2-0.2-0.3-0.4-0.4-0.6l-2.8-7.1H48.8L46,50.2c-0.1,0.2-0.2,0.4-0.4,0.6c-0.2,0.2-0.5,0.2-0.8,0.2H42.2z M27.1,51 c-0.3,0-0.6-0.1-0.8-0.3c-0.2-0.2-0.3-0.5-0.3-0.9V20.5h-9.6c-0.3,0-0.6-0.1-0.8-0.3c-0.2-0.2-0.3-0.5-0.3-0.9v-2.1 c0-0.3,0.1-0.6,0.3-0.9c0.2-0.2,0.5-0.4,0.8-0.4h24.1c0.4,0,0.7,0.1,0.8,0.4c0.2,0.2,0.3,0.5,0.3,0.9v2.1c0,0.3-0.1,0.6-0.3,0.9 c-0.2,0.2-0.5,0.3-0.8,0.3h-9.6v29.4c0,0.3-0.1,0.6-0.3,0.9c-0.2,0.2-0.5,0.3-0.8,0.3H27.1z"></path> </svg> 