<?xml version="1.0" encoding="UTF-8"?> <!-- Generator: Adobe Illustrator 24.0.3, SVG Export Plug-In . SVG Version: 6.00 Build 0) --> <svg xmlns="http://www.w3.org/2000/svg" xmlns:xlink="http://www.w3.org/1999/xlink" x="0px" y="0px" viewBox="0 0 141.7 141.7" style="enable-background:new 0 0 141.7 141.7;" xml:space="preserve"> <style type="text/css"> .st0{fill:#FFAE00;} </style> <g id="bkg"> </g> <g id="Layer_1"> <g> <path class="st0" d="M0,0v141.7h141.7V0H0z M65.3,110.5c-25,0-45.3-9.2-45.3-20.5l0.1-31c0,0.1,0,0,0,0c0,0.1,0-0.1,0,0 c0,0,0,0,0,0c0,0,0,0,0,0c0.3-5.1,4.8-10.7,13.2-14.6c11.8-5.4,28.5-7.2,43.5-5.4L65.3,58.9l43.6-5.4c1.1,1.8,1.7,4.1,1.7,6 l0,30.5C110.6,101.3,90.3,110.5,65.3,110.5z M121.7,81.7c0,1.4-1,2.6-2.4,2.9l-8.7,1.5v-5.9l5.3-0.9V47.5l-40.7,5l12.5-21.3 c7.9,1,15.4,2.9,21.6,5.7c6.2,2.8,10.4,6.3,12.5,9.9V81.7z"></path> <path class="st0" d="M26.9,73.4V90c0,4.6,13.6,13.7,38.5,13.7c24.9,0,38.5-9,38.5-13.7V73.4c-9.4,5.3-23,8.5-38.5,8.5 S36.3,78.7,26.9,73.4z"></path> </g> </g> </svg> 