<?xml version="1.0" encoding="UTF-8"?> <!-- Generator: Adobe Illustrator 24.0.3, SVG Export Plug-In . SVG Version: 6.00 Build 0) --> <svg xmlns="http://www.w3.org/2000/svg" xmlns:xlink="http://www.w3.org/1999/xlink" id="Layer_1" x="0px" y="0px" viewBox="0 0 17 305" style="enable-background:new 0 0 17 305;" xml:space="preserve"> <style type="text/css"> .st0{fill:#1D1D1B;} </style> <g> <path class="st0" d="M17,305c-5.2,0-9.5-4.2-9.5-9.5V161c0-2.5-1.2-4.8-3.3-6.2l-3.3-2.2l3.3-2.2c2.1-1.4,3.3-3.7,3.3-6.2V9.5 C7.5,4.2,11.8,0,17,0v2c-4.1,0-7.5,3.4-7.5,7.5V144c0,3.2-1.6,6.1-4.2,7.9l-0.9,0.6l0.9,0.6c2.6,1.8,4.2,4.7,4.2,7.9v134.6 c0,4.1,3.4,7.5,7.5,7.5V305z"></path> </g> </svg> 