<?xml version="1.0" encoding="UTF-8"?> <!-- Generator: Adobe Illustrator 24.0.3, SVG Export Plug-In . SVG Version: 6.00 Build 0) --> <svg xmlns="http://www.w3.org/2000/svg" xmlns:xlink="http://www.w3.org/1999/xlink" id="Layer_1" x="0px" y="0px" viewBox="0 0 168 168" style="enable-background:new 0 0 168 168;" xml:space="preserve"> <g> <g> <g> <path d="M90.7,133.1c-11,0-19.2-4-19.2-9.3s8.3-9.3,19.2-9.3c11,0,19.2,4,19.2,9.3S101.7,133.1,90.7,133.1z M90.7,118.2 c-9.4,0-15.4,3.3-15.4,5.5s6,5.5,15.4,5.5c9.4,0,15.4-3.3,15.4-5.5S100.1,118.2,90.7,118.2z"></path> </g> <g> <path d="M90.7,145.4c-11,0-19.2-4-19.2-9.3h3.8c0,2.3,6,5.5,15.4,5.5c9.4,0,15.4-3.3,15.4-5.5h3.8 C109.9,141.4,101.7,145.4,90.7,145.4z"></path> </g> <g> <path d="M90.7,157.8c-11,0-19.2-4-19.2-9.3v-24.8h3.8v24.8c0,2.3,6,5.5,15.4,5.5c9.4,0,15.4-3.3,15.4-5.5v-24.8h3.8v24.8 C109.9,153.8,101.7,157.8,90.7,157.8z"></path> </g> </g> <g> <g> <path d="M125.4,113.3c-11,0-19.2-4-19.2-9.3s8.3-9.3,19.2-9.3c11,0,19.2,4,19.2,9.3S136.3,113.3,125.4,113.3z M125.4,98.4 c-9.4,0-15.4,3.3-15.4,5.5s6,5.5,15.4,5.5c9.4,0,15.4-3.3,15.4-5.5S134.8,98.4,125.4,98.4z"></path> </g> <g> <path d="M125.4,125.6c-4.9,0-9.5-0.8-13.1-2.4l1.5-3.5c3,1.3,7.2,2,11.5,2c9.4,0,15.4-3.3,15.4-5.5h3.8 C144.6,121.6,136.3,125.6,125.4,125.6z"></path> </g> <g> <path d="M125.4,138c-5.1,0-9.8-0.9-13.3-2.5l1.6-3.5c3,1.4,7.3,2.1,11.8,2.1c9.4,0,15.4-3.3,15.4-5.5h3.8 C144.6,134,136.3,138,125.4,138z"></path> </g> <g> <rect x="106.1" y="103.9" width="3.8" height="9.9"></rect> </g> <g> <path d="M125.4,150.4c-4.9,0-9.5-0.8-13-2.3l1.5-3.5c3,1.3,7.1,2,11.5,2c9.4,0,15.4-3.3,15.4-5.5v-37.1h3.8v37.1 C144.6,146.4,136.3,150.4,125.4,150.4z"></path> </g> </g> <g> <path d="M127.8,61.3c-5.1,0-9.3-4.2-9.3-9.3s4.2-9.3,9.3-9.3c5.1,0,9.3,4.2,9.3,9.3S133,61.3,127.8,61.3z M127.8,46.4 c-3,0-5.5,2.5-5.5,5.5s2.5,5.5,5.5,5.5c3,0,5.5-2.5,5.5-5.5S130.9,46.4,127.8,46.4z"></path> </g> <g> <path d="M145.2,88.5c-5.1,0-9.3-4.2-9.3-9.3c0-5.1,4.2-9.3,9.3-9.3c5.1,0,9.3,4.2,9.3,9.3C154.5,84.3,150.3,88.5,145.2,88.5z M145.2,73.7c-3,0-5.5,2.5-5.5,5.5c0,3,2.5,5.5,5.5,5.5s5.5-2.5,5.5-5.5C150.7,76.1,148.2,73.7,145.2,73.7z"></path> </g> <g> <rect x="114.3" y="64.9" transform="matrix(0.707 -0.7072 0.7072 0.707 -7.6259 115.2216)" width="42" height="3.8"></rect> </g> <g> <path d="M66,143H43.7c-9.2,0-16.8-7.5-16.8-16.8V37.1c0-7.1-5.8-13-13-13c-1,0-1.9-0.9-1.9-1.9s0.9-1.9,1.9-1.9h81.7 c9.2,0,16.8,7.5,16.8,16.8v54.5h-3.8V37.1c0-7.1-5.8-13-13-13H24.6c3.7,3.1,6.1,7.7,6.1,13v89.1c0,7.1,5.8,13,13,13H66V143z"></path> </g> <g> <rect x="41.2" y="32.7" width="44.6" height="3.8"></rect> </g> <g> <rect x="75.9" y="62.4" width="22.3" height="3.8"></rect> </g> <g> <rect x="41.2" y="62.4" width="29.7" height="3.8"></rect> </g> <g> <rect x="41.2" y="99.6" width="22.3" height="3.8"></rect> </g> <g> <rect x="68.4" y="99.6" width="17.3" height="3.8"></rect> </g> <g> <rect x="41.2" y="74.8" width="14.9" height="3.8"></rect> </g> <g> <rect x="41.2" y="111.9" width="19.8" height="3.8"></rect> </g> <g> <rect x="41.2" y="89.7" width="7.4" height="3.8"></rect> </g> <g> <rect x="53.6" y="87.2" width="19.8" height="3.8"></rect> </g> <g> <rect x="61" y="74.8" width="22.3" height="3.8"></rect> </g> <g> <rect x="88.2" y="74.8" width="9.9" height="3.8"></rect> </g> <g> <rect x="90.7" y="99.6" width="7.4" height="3.8"></rect> </g> <g> <rect x="41.2" y="42.6" width="19.8" height="3.8"></rect> </g> <g> <rect x="78.3" y="87.2" width="19.8" height="3.8"></rect> </g> </g> </svg> 