<?xml version="1.0" encoding="UTF-8"?> <!-- Generator: Adobe Illustrator 24.0.3, SVG Export Plug-In . SVG Version: 6.00 Build 0) --> <svg xmlns="http://www.w3.org/2000/svg" xmlns:xlink="http://www.w3.org/1999/xlink" id="Layer_1" x="0px" y="0px" viewBox="0 0 154 154" style="enable-background:new 0 0 154 154;" xml:space="preserve"> <style type="text/css"> .st0{fill:none;stroke:#00327B;stroke-width:5.605;stroke-linecap:round;stroke-linejoin:round;stroke-miterlimit:10;} </style> <g> <g> <polyline class="st0" points="10.5,75.8 25.6,68.5 51.9,121 36.8,128.2 "></polyline> <path class="st0" d="M75.6,60.2l30.7-0.1c1.8,0,3.3,1.4,3.3,3.3l0,0c0,6.8-5.5,12.4-12.4,12.4l-21.5,0.1l0,0 c0,6.5-5.2,11.8-11.7,11.8l-6.5,0"></path> <path class="st0" d="M93,43.6l-21.7-0.3c-5.7-0.1-11.2,2.1-15.2,6.1L30,75.1"></path> <path class="st0" d="M49.1,114.6l10.1-9.9l0,0c8.3,0,16.3-2.6,23.1-7.4l2.3-1.6"></path> </g> <path class="st0" d="M124,103.2v9.3c0,2.8,2.3,5.2,5.2,5.2h8.3c2.8,0,5.2-2.3,5.2-5.2V29.9c0-2.8-2.3-5.2-5.2-5.2h-8.3 c-2.8,0-5.2,2.3-5.2,5.2v11.4"></path> <path class="st0" d="M84.8,75.8c1.7,12.9,12.8,22.9,26.2,22.9c2.2,0,4.3-0.3,6.4-0.8c5.9-1.5,11-4.9,14.6-9.6"></path> <path class="st0" d="M87.4,60.1c4.4-8.5,13.3-14.4,23.5-14.4c2.2,0,4.3,0.3,6.4,0.8c5.9,1.5,11,4.9,14.6,9.6"></path> <line class="st0" x1="132.2" y1="47.5" x2="132.2" y2="97"></line> </g> </svg> 