<?xml version="1.0" encoding="UTF-8"?> <!-- Generator: Adobe Illustrator 24.0.3, SVG Export Plug-In . SVG Version: 6.00 Build 0) --> <svg xmlns="http://www.w3.org/2000/svg" xmlns:xlink="http://www.w3.org/1999/xlink" id="Layer_1" x="0px" y="0px" viewBox="0 0 154 154" style="enable-background:new 0 0 154 154;" xml:space="preserve"> <style type="text/css"> .st0{fill:#00A5ED;} .st1{fill:#003578;} </style> <path class="st0" d="M98.6,56.7c1.6,0,2.8-1.3,2.8-2.8V42.6c0-1.6-1.3-2.8-2.8-2.8H55.4c-1.2,0-2.2,0.7-2.6,1.8 c-0.4,1.1-0.1,2.3,0.8,3.1L89.7,77l-36.2,32.3c-0.9,0.8-1.2,2-0.8,3.1s1.5,1.8,2.6,1.8h43.3c1.6,0,2.8-1.3,2.8-2.8v-11.3 c0-1.6-1.3-2.8-2.8-2.8c-1.6,0-2.8,1.3-2.8,2.8v8.5h-33l33.1-29.5l0,0c0,0,0,0,0.1-0.1l0.1-0.1l0,0c0,0,0-0.1,0.1-0.1l0.1-0.1 c0,0,0-0.1,0.1-0.1l0.1-0.1c0,0,0-0.1,0.1-0.1c0,0,0-0.1,0.1-0.1c0,0,0-0.1,0.1-0.1v-0.1V78v-0.1c0-0.1,0-0.1,0-0.2v-0.1v-0.1v-0.1 v-0.1v-0.1v-0.1V77v-0.1c0-0.1,0-0.1,0-0.2v-0.1v-0.1v-0.1c0,0,0-0.1-0.1-0.1c0,0,0-0.1-0.1-0.1c0,0,0-0.1-0.1-0.1L96.4,76 c0,0,0-0.1-0.1-0.1l-0.1-0.1c0,0,0-0.1-0.1-0.1l0,0L96,75.6l-0.1-0.1l0,0L62.8,45.4h33v8.5C95.8,55.5,97.1,56.7,98.6,56.7L98.6,56.7 z"></path> <path class="st1" d="M151.9,58.9c-3.4-14-10.7-26.8-21-36.9c-9.2-9-20.5-15.5-32.8-19C91.2,1,84.2,0,77,0c-1.3,0-2.7,0-4,0.1 c-1,0.1-2,0.1-2.9,0.2C65.3,0.7,60.6,1.6,56,2.9l0,0C43.7,6.4,32.3,13,23.2,21.9l0,0l0,0c-10.4,10.2-17.7,23-21.1,37 C0.7,64.8,0,70.9,0,77c0,6.4,0.8,12.7,2.3,18.8c1,4,2.3,7.9,3.9,11.6c4.1,9.6,10.2,18.3,17.9,25.6l0,0c8.8,8.3,19.6,14.5,31.1,17.9 c7,2.1,14.3,3.1,21.7,3.1s14.7-1,21.7-3.1c11.6-3.4,22.3-9.6,31.1-17.9c1.7-1.6,3.3-3.2,4.8-4.9c8.2-9.2,14-20.3,17-32.3l0,0l0,0 l0,0c1.5-6.1,2.3-12.4,2.3-18.8C154,70.9,153.3,64.8,151.9,58.9z M126.9,26c9.3,9.1,16,20.6,19.2,33.1l-7.3,12.7l-35.2-61 C112.2,14.2,120.2,19.4,126.9,26z M135.5,77.5l-29.2,50.7H47.8L18.5,77.4l29.2-50.6h58.5L135.5,77.5z M57.5,8.4 C63.8,6.6,70.4,5.7,77,5.7c4.4,0,8.9,0.4,13.2,1.2c1.7,0.3,3.5,0.7,5.2,1.2l0,0l7.5,13.1H32.6C40,15.3,48.5,10.9,57.5,8.4z M5.7,77 c0-5.7,0.7-11.3,2-16.8c3-12.6,9.5-24.1,18.7-33.4h14.9L6.4,87.1C5.9,83.8,5.7,80.4,5.7,77z M28,128.9c-1.6-1.5-3-3-4.4-4.6 c-0.8-0.9-1.6-1.8-2.3-2.7c-0.1-0.2-0.2-0.3-0.4-0.5c-6-7.6-10.3-16.3-12.8-25.6l7.2-12.4l28.4,49.2l6.1,10.6 C41.8,139.6,34.4,134.9,28,128.9z M97.1,145.5c-6.5,1.9-13.3,2.9-20.1,2.9c-6.5,0-12.9-0.9-19-2.6l-6.9-12h56.8l0,0l0,0h12.3 C113.3,139,105.4,143,97.1,145.5z M146.4,93.5c-0.5,2.1-1.1,4.1-1.7,6.1c-0.4,1.1-0.8,2.2-1.2,3.4c-0.1,0.2-0.1,0.4-0.2,0.6 c-3.3,8.4-8.2,16-14.4,22.5c-0.1,0.1-0.1,0.1-0.2,0.2l-0.1,0.1c0.1-0.1,0.1-0.1,0.2-0.2c-0.4,0.4-0.8,0.9-1.2,1.3l0,0 c-0.1,0.1-0.6,0.6-0.7,0.7h-14l34.9-60.5C148.9,76.2,148.4,85,146.4,93.5z"></path> </svg> 