<?xml version="1.0" encoding="UTF-8"?> <!-- Generator: Adobe Illustrator 24.0.3, SVG Export Plug-In . SVG Version: 6.00 Build 0) --> <svg xmlns="http://www.w3.org/2000/svg" xmlns:xlink="http://www.w3.org/1999/xlink" id="Layer_1" x="0px" y="0px" viewBox="0 0 154 154" style="enable-background:new 0 0 154 154;" xml:space="preserve"> <style type="text/css"> .st0{fill:#00A5ED;} .st1{fill:#003578;} </style> <g> <circle class="st0" cx="118.4" cy="106.4" r="5.9"></circle> <ellipse class="st0" cx="33.2" cy="21.1" rx="5.9" ry="5.9"></ellipse> <path class="st1" d="M125.1,22.1L125.1,22.1l-0.7-0.8c-0.8-0.8-1.6-1.7-2.4-2.6l0,0l0,0l-0.7-0.7l0,0c-6.7-6.5-14.8-11.5-23.7-14.6 l0,0l-1-0.3c-1.1-0.4-2.3-0.7-3.4-1l0,0l-1-0.3l0,0C87.3,0.6,82.2,0,77,0C63.7,0,51,4.1,40.2,11.7c-0.6,0.4-1,1.1-1.1,1.9 c-0.1,0.8,0.1,1.5,0.6,2.1c0.5,0.6,1.3,1,2.2,1c0.6,0,1.1-0.2,1.6-0.5C53.3,9.3,64.9,5.6,77,5.6c4.6,0,9.1,0.5,13.5,1.6l-2.7,8.2 l0,0l-1.2,3.5l-4.8,14.6c-1.6-0.3-3.2-0.4-4.8-0.4c-12.5,0-23.2,7.5-27.9,18.3l-18-5.2L30.2,46l0,0l-7.8-2.3 c1.6-4.3,3.7-8.4,6.2-12.2c0.8-1.2,0.6-2.8-0.6-3.7c-0.5-0.4-1.1-0.6-1.7-0.6c-0.9,0-1.8,0.5-2.3,1.2c-2.9,4.3-5.2,8.9-6.9,13.8 l0,0l-0.3,1c-0.4,1.1-0.7,2.3-1,3.4l0,0l-0.3,1l0,0c-1.4,5.2-2.1,10.7-2.1,16.2c0,6.1,1.9,13.1,5.5,20.8l0,0l0.4,0.9 c0.5,1,1,2,1.5,2.9c0,0.1,0.1,0.2,0.1,0.3l0.5,1l0,0c3.8,7,9.1,14.7,15.6,22.9l0,0l0.6,0.7c0.7,0.9,1.5,1.8,2.2,2.7l0.8,1l0,0 c1.3,1.6,2.6,3.1,3.9,4.6c14.5,16.6,29.1,29.5,30.7,31l1.8,1.6l1.8-1.6c0.1-0.1,6.8-5.9,15.6-14.8l0,0l0.9-0.9 c0.8-0.8,1.6-1.6,2.4-2.5l0.6-0.7l0,0c4-4.1,7.7-8.2,11.2-12.1c1.3-1.5,2.7-3.1,3.9-4.6c0.5-0.6,0.7-1.3,0.6-2s-0.4-1.4-1-1.9 c-0.5-0.4-1.1-0.7-1.8-0.7c-0.8,0-1.6,0.4-2.2,1c-4.3,5.1-9,10.4-14.2,15.7L87,118.6l5.9-3.1l0,0l5-2.6l-8.4-21.4l0,0 c10.9-5,17.9-15.7,17.9-27.7c0-13.2-8.4-24.5-20.2-28.7L90.9,24l18.3,11.9l11.7-10.1c9.1,10.5,14.1,24,14.1,37.9 c0,8.5-4.3,19.2-12.7,31.9c-0.8,1.3-0.5,3,0.8,3.9c0.5,0.3,1,0.5,1.6,0.5c0.9,0,1.8-0.5,2.3-1.3c9-13.6,13.6-25.4,13.6-35 C140.6,48.4,135.1,33.6,125.1,22.1z M58.1,87.5l-1.2,1.4l-20.3-12L36,53.5l11.3,3.3c-0.5,2.2-0.8,4.5-0.8,6.8 C46.5,73.3,51.1,81.9,58.1,87.5z M19,63.6c0-4.9,0.6-9.8,1.9-14.6l9.6,2.8L31,73.5l0,0l0.1,3.2l-7.4,4.7C20.5,74.7,19,68.7,19,63.6 z M26.1,86.4l7.6-4.8l19.5,11.6L40.7,108C34.6,100.3,29.7,93,26.1,86.4z M91,110.1l-12.3,6.3L91,133c-6.1,6.1-11.2,10.9-14,13.5 c-5.1-4.7-19.5-18.1-32.8-34l14-16.4l3.5-4.2l0,0l1-1.2c4.2,2.2,9.1,3.5,14.2,3.5c2.5,0,4.9-0.3,7.3-0.9L91,110.1z M101.9,63.6 c0,10-6,19.1-15.3,22.9c-1,0.4-2.1,0.8-3.1,1.1l0,0c-2.1,0.6-4.2,0.8-6.4,0.8c-13.7,0-24.9-11.1-24.9-24.9 c0-13.7,11.1-24.9,24.9-24.9C90.7,38.8,101.9,49.9,101.9,63.6z M95.9,8.8c7.8,2.7,15.1,7.2,21.2,12.9l-8.3,7.2l-16-10.4L95.9,8.8z"></path> </g> </svg> 