<?xml version="1.0" encoding="UTF-8"?> <!-- Generator: Adobe Illustrator 24.0.3, SVG Export Plug-In . SVG Version: 6.00 Build 0) --> <svg xmlns="http://www.w3.org/2000/svg" xmlns:xlink="http://www.w3.org/1999/xlink" id="Layer_1" x="0px" y="0px" viewBox="0 0 168 168" style="enable-background:new 0 0 168 168;" xml:space="preserve"> <g> <g> <path d="M124.1,140.9H45.2c-1,0-1.9-0.9-1.9-1.9V19c0-1,0.9-1.9,1.9-1.9h78.8c1,0,1.9,0.9,1.9,1.9v80.1c0,1-0.9,1.9-1.9,1.9 s-1.9-0.9-1.9-1.9V20.9h-75v116.2h75V135c0-1,0.9-1.9,1.9-1.9s1.9,0.9,1.9,1.9v4C126,140,125.1,140.9,124.1,140.9z"></path> </g> <g> <path d="M114.1,150.9H35.2c-1,0-1.9-0.9-1.9-1.9V29.1c0-1,0.9-1.9,1.9-1.9h4.1c1,0,1.9,0.9,1.9,1.9S40.4,31,39.3,31h-2.2v116.1 h75.1v-2.2c0-1,0.9-1.9,1.9-1.9s1.9,0.9,1.9,1.9v4.1C116,150,115.1,150.9,114.1,150.9z"></path> </g> <g> <path d="M111.9,32H57.4c-1,0-1.9-0.9-1.9-1.9s0.9-1.9,1.9-1.9h54.5c1,0,1.9,0.9,1.9,1.9S113,32,111.9,32z"></path> </g> <g> <path d="M111.9,44.3H57.4c-1,0-1.9-0.9-1.9-1.9s0.9-1.9,1.9-1.9h54.5c1,0,1.9,0.9,1.9,1.9S113,44.3,111.9,44.3z"></path> </g> <g> <path d="M111.9,56.5H57.4c-1,0-1.9-0.9-1.9-1.9s0.9-1.9,1.9-1.9h54.5c1,0,1.9,0.9,1.9,1.9S113,56.5,111.9,56.5z"></path> </g> <g> <path d="M111.9,68.8H57.4c-1,0-1.9-0.9-1.9-1.9s0.9-1.9,1.9-1.9h54.5c1,0,1.9,0.9,1.9,1.9S113,68.8,111.9,68.8z"></path> </g> <g> <path d="M90.5,81.1H57.4c-1,0-1.9-0.9-1.9-1.9s0.9-1.9,1.9-1.9h33.1c1,0,1.9,0.9,1.9,1.9S91.6,81.1,90.5,81.1z"></path> </g> <g> <path d="M71.9,125c-8.5,0-15.5-6.9-15.5-15.5c0-8.5,6.9-15.4,15.5-15.4c4.8,0,9.2,2.1,12.1,5.9c0.6,0.8,0.5,2-0.3,2.7 c-0.8,0.6-2,0.5-2.7-0.3c-2.2-2.8-5.5-4.4-9.1-4.4c-6.4,0-11.7,5.2-11.7,11.6c0,6.4,5.2,11.7,11.7,11.7c1,0,1.9,0.9,1.9,1.9 S72.9,125,71.9,125z"></path> </g> <g> <g> <path d="M132.8,121.6H82.9c-1,0-1.9-0.9-1.9-1.9v-10.6c0-1,0.9-1.9,1.9-1.9h49.9c1,0,1.9,0.9,1.9,1.9v10.6 C134.7,120.7,133.9,121.6,132.8,121.6z M84.8,117.8h46.1V111H84.8V117.8z"></path> </g> <g> <path d="M129.4,129.4h-43c-1,0-1.9-0.9-1.9-1.9v-7.8c0-1,0.9-1.9,1.9-1.9s1.9,0.9,1.9,1.9v5.9h39.2v-5.9c0-1,0.9-1.9,1.9-1.9 s1.9,0.9,1.9,1.9v7.8C131.3,128.5,130.4,129.4,129.4,129.4z"></path> </g> <g> <path d="M111.9,105.1c-0.3,0-0.5-0.1-0.8-0.2c-1-0.4-1.4-1.5-1-2.5c2.1-4.8,6.7-18.3,3.1-23.8c-1-1.6-2.8-2.4-5.4-2.4 c-2.6,0-4.3,0.8-5.4,2.4c-3.6,5.5,1,19,3.1,23.8c0.4,1,0,2.1-1,2.5c-1,0.4-2.1,0-2.5-1c-0.1-0.2-2.1-4.7-3.4-10.3 c-1.9-7.8-1.7-13.5,0.6-17.1c1.8-2.7,4.7-4.1,8.6-4.1c3.9,0,6.8,1.4,8.6,4.1c2.3,3.6,2.5,9.3,0.6,17.1 c-1.4,5.5-3.4,10.1-3.4,10.3C113.3,104.7,112.6,105.1,111.9,105.1z"></path> </g> </g> </g> </svg> 