<?xml version="1.0" encoding="UTF-8"?> <!-- Generator: Adobe Illustrator 24.0.3, SVG Export Plug-In . SVG Version: 6.00 Build 0) --> <svg xmlns="http://www.w3.org/2000/svg" xmlns:xlink="http://www.w3.org/1999/xlink" id="Layer_1" x="0px" y="0px" viewBox="0 0 740 340" style="enable-background:new 0 0 740 340;" xml:space="preserve"> <style type="text/css"> .st0{fill:#FFFFFF;} .st1{fill:#FFFFFF;stroke:#FFFFFF;stroke-width:10;stroke-linecap:round;stroke-miterlimit:10;} .st2{fill:#CFD7E3;} .st3{opacity:0.5;} .st4{opacity:0.2;} </style> <path class="st0" d="M300.5,198.6v-16.3c0-10,2.1-19.7,6-28.6H132.7v-39.2h13.6c34.3,0,63.1-23.2,71.8-54.7H17.9 c8.6,31.5,37.5,54.7,71.8,54.7h13.6v39.2h-0.4c-7.1,0-12.8,5.7-12.8,12.8c0,3.4,1.3,6.5,3.5,8.7c2.1,2.3,5.1,3.8,8.5,4l3.5,0.2 c2.6,4.2,7.2,6.9,12.5,6.9c4.6,0,8.7-2.1,11.4-5.4L300.5,198.6z M125.7,166.8c0,4.3-3.5,7.7-7.7,7.7s-7.7-3.5-7.7-7.7 c0-4.3,3.5-7.7,7.7-7.7S125.7,162.5,125.7,166.8z"></path> <path class="st0" d="M494.5,316.1h-249l-1.6,1.1c-4,11.1,4.3,22.8,16.1,22.8H480c11.8,0,20.1-11.7,16.1-22.8L494.5,316.1z"></path> <path class="st0" d="M282.9,262.4c-0.5,0.1-0.9,0.2-1.4,0.4c-16.4,4.7-27.4,20-27.4,37c0,3.9-1.2,7.6-3.2,10.8h238.3 c-2.1-3.2-3.2-6.9-3.2-10.8c0-8.5-2.8-16.6-7.6-23.2c-4.8-6.5-11.7-11.5-19.8-13.9c-0.5-0.1-0.9-0.3-1.4-0.4 c-9.2-2.3-17-7.5-22.5-14.6c-5.5-7-8.7-15.9-8.7-25.3v-40.2c0-30.8-25.2-56.7-55.9-56.7c-0.7,0-1.4,0-2.2,0 c-30.1,1.1-53.7,26.4-53.7,56.5v40.3C314.1,241.4,301.2,257.9,282.9,262.4z M370,155.5c12.3,0,22.2,9.9,22.2,22.2 c0,12.3-9.9,22.2-22.2,22.2c-12.3,0-22.2-9.9-22.2-22.2C347.8,165.4,357.7,155.5,370,155.5z"></path> <line class="st1" x1="218.1" y1="59.7" x2="17.9" y2="59.7"></line> <path class="st0" d="M610.6,180.9c2.7,3.3,6.8,5.4,11.4,5.4c5.3,0,9.9-2.8,12.5-6.9l3.5-0.2c3.4-0.2,6.4-1.7,8.5-4 c2.2-2.3,3.5-5.4,3.5-8.7c0-7.1-5.7-12.8-12.8-12.8h-0.4v-39.2h13.6c34.3,0,63.1-23.2,71.8-54.7H521.9c8.6,31.5,37.5,54.7,71.8,54.7 h13.6v39.2H433.5c4,8.9,6,18.6,6,28.6v16.3L610.6,180.9z M622,159c4.3,0,7.7,3.5,7.7,7.7c0,4.3-3.5,7.7-7.7,7.7 c-4.3,0-7.7-3.5-7.7-7.7C614.3,162.5,617.7,159,622,159z"></path> <line class="st1" x1="521.9" y1="59.7" x2="722.1" y2="59.7"></line> <polygon class="st2" points="361.4,182.7 363.5,106.8 376.5,106.8 378.6,182.7 "></polygon> <g class="st3"> <g> <path d="M221.3,116.8c-0.2,0-0.3,0-0.5-0.1l-14.6-8.9c-0.2-0.1-0.3-0.2-0.3-0.4c0-0.2,0-0.3,0.1-0.5l7.2-11.8 c0.1-0.2,0.2-0.3,0.4-0.3c0.2,0,0.3,0,0.5,0.1l14.6,8.9c0.1,0.1,0.2,0.2,0.3,0.4c0,0.2,0,0.3-0.1,0.5l-1.3,2.1 c-0.1,0.1-0.2,0.2-0.4,0.3c-0.2,0-0.3,0-0.5-0.1l-12.3-7.5l-4,6.5l12.3,7.5c0.1,0.1,0.2,0.2,0.3,0.4c0,0.2,0,0.3-0.1,0.5l-1.3,2.1 C221.6,116.7,221.5,116.8,221.3,116.8z"></path> <path d="M232.8,98.9c-0.2,0-0.3,0-0.5-0.1l-13.4-10.6c-0.2-0.1-0.2-0.3-0.3-0.4c0-0.2,0-0.3,0.1-0.5l4.3-5.5 c1.3-1.7,2.7-2.7,4.3-3c1.5-0.3,3,0.1,4.5,1.3c1.5,1.2,2.2,2.5,2.2,4.1c0,1.5-0.6,3.1-1.9,4.8l-2.4,3l4.8,3.8 c0.2,0.1,0.2,0.3,0.2,0.4c0,0.2,0,0.3-0.2,0.5l-1.6,2C233.1,98.8,232.9,98.9,232.8,98.9z M229.8,87.2c0.6-0.8,0.9-1.6,0.9-2.3 c0-0.7-0.4-1.4-1.2-1.9c-0.7-0.6-1.4-0.8-2.1-0.7c-0.7,0.1-1.4,0.5-2,1.4l-2.3,3l4.5,3.5L229.8,87.2z"></path> <path d="M245,82c-1.8,0.1-3.6-0.7-5.3-2.3c-0.4-0.3-0.9-0.9-1.6-1.6c-0.7-0.7-1.2-1.2-1.6-1.6c-1.6-1.7-2.3-3.5-2.3-5.3 c0.1-1.8,0.9-3.6,2.6-5.2c1.6-1.6,3.4-2.5,5.2-2.6c1.8-0.1,3.6,0.7,5.3,2.2c0.7,0.7,1.3,1.2,1.6,1.6c0.3,0.3,0.8,0.9,1.5,1.6 c1.6,1.7,2.4,3.5,2.3,5.3s-1,3.5-2.7,5.2C248.6,81,246.8,81.9,245,82z M249.3,74.5c0-1-0.5-2-1.5-3.1c-0.7-0.8-1.2-1.3-1.5-1.5 c-0.3-0.3-0.8-0.8-1.5-1.5c-1.1-1-2.1-1.5-3.1-1.5c-1,0-1.9,0.4-2.7,1.2c-0.8,0.8-1.2,1.7-1.2,2.7s0.5,2,1.5,3 c0.3,0.4,0.8,0.9,1.5,1.5c0.6,0.6,1.1,1.1,1.5,1.5c1,1,2.1,1.5,3,1.5c1,0,1.9-0.4,2.7-1.2C248.9,76.3,249.3,75.4,249.3,74.5z"></path> <path d="M266.3,65.7c-0.2,0-0.3-0.1-0.4-0.3l-1.2-1.5c-4.2,3.2-7.8,3.1-10.9-0.3l-0.6-0.7l-0.6-0.8c-1.3-1.9-1.7-3.7-1.2-5.5 c0.5-1.8,1.7-3.5,3.7-5.1l-1-1.3c-0.1-0.2-0.2-0.3-0.1-0.5c0-0.2,0.1-0.3,0.3-0.4l1.9-1.5c0.2-0.1,0.3-0.2,0.5-0.1 c0.2,0,0.3,0.1,0.4,0.3l1,1.3c2-1.5,4-2.3,5.9-2.2c1.9,0,3.6,0.9,5,2.6c0.2,0.2,0.4,0.5,0.7,0.8c0.2,0.3,0.4,0.5,0.5,0.7 c2.5,3.9,1.6,7.4-2.5,10.6l1.2,1.5c0.1,0.2,0.2,0.3,0.1,0.5c0,0.2-0.1,0.3-0.3,0.4l-1.9,1.5C266.6,65.6,266.5,65.7,266.3,65.7z M257.1,53.8c-1.2,0.9-1.8,1.8-2.1,2.8c-0.2,1,0,2,0.8,3.2l0.5,0.7l0.5,0.6c1.7,2,3.8,2.1,6.1,0.3L257.1,53.8z M267.1,53.2 c-0.1-0.1-0.3-0.4-0.6-0.8c-0.2-0.3-0.3-0.4-0.4-0.5c-0.9-1-1.9-1.5-2.9-1.6c-1,0-2.1,0.4-3.2,1.3l5.8,7.6 C268.1,57.4,268.6,55.4,267.1,53.2z"></path> <path d="M280.1,54.7c-0.2-0.1-0.3-0.2-0.4-0.3l-8.4-14.8c-0.1-0.2-0.1-0.3-0.1-0.5c0-0.2,0.1-0.3,0.3-0.4l2.1-1.2 c0.2-0.1,0.3-0.1,0.5-0.1c0.2,0,0.3,0.2,0.4,0.3l5.9,10.4l1.5-14.8c0-0.3,0.1-0.6,0.4-0.8l1.9-1.1c0.2-0.1,0.3-0.1,0.5-0.1 c0.2,0.1,0.3,0.2,0.4,0.3l8.4,14.9c0.1,0.2,0.1,0.3,0.1,0.5s-0.1,0.3-0.3,0.4l-2.1,1.2c-0.2,0.1-0.3,0.1-0.5,0.1 c-0.2,0-0.3-0.1-0.4-0.3l-5.7-10.2L283,52.8c0,0.3-0.2,0.6-0.4,0.8l-1.9,1.1C280.4,54.8,280.3,54.8,280.1,54.7z"></path> <path d="M313.2,42.8c-0.2-0.1-0.3-0.2-0.3-0.4l-1.1-2.8L300,44.3c-0.2,0.1-0.3,0.1-0.5,0s-0.3-0.2-0.3-0.4l-6.4-15.8 c-0.1-0.2-0.1-0.3,0-0.5c0.1-0.2,0.2-0.3,0.3-0.3l2.2-0.9c0.2-0.1,0.3-0.1,0.5,0c0.2,0.1,0.3,0.2,0.3,0.3l5.4,13.3l7.1-2.9 l-5.4-13.3c-0.1-0.2-0.1-0.3,0-0.5c0.1-0.2,0.2-0.3,0.3-0.3l2.3-0.9c0.2-0.1,0.3-0.1,0.5,0c0.1,0.1,0.3,0.2,0.3,0.4l5.4,13.3 l1.2-0.5c0.2-0.1,0.3-0.1,0.5,0c0.2,0.1,0.3,0.2,0.3,0.3l2.1,5.3c0.1,0.2,0.1,0.3,0,0.5c-0.1,0.2-0.2,0.3-0.4,0.3l-2.2,0.9 C313.5,42.8,313.4,42.8,313.2,42.8z"></path> <path d="M320,36.5c-0.1-0.1-0.2-0.2-0.3-0.4l-4.3-16.5c0-0.2,0-0.4,0-0.5c0.1-0.1,0.2-0.2,0.4-0.3l2.4-0.6c0.2,0,0.3,0,0.5,0.1 s0.2,0.2,0.3,0.4l3,11.6l5.3-13.9c0.1-0.3,0.3-0.5,0.6-0.6l2.1-0.5c0.2,0,0.3,0,0.5,0.1c0.1,0.1,0.2,0.2,0.3,0.4l4.3,16.5 c0,0.2,0,0.3-0.1,0.5c-0.1,0.1-0.2,0.2-0.4,0.3l-2.3,0.6c-0.2,0-0.4,0-0.5-0.1c-0.1-0.1-0.2-0.2-0.3-0.4l-2.9-11.3l-5.3,13.6 c-0.1,0.3-0.3,0.5-0.6,0.6l-2.2,0.6C320.3,36.6,320.1,36.6,320,36.5z"></path> <path d="M345.5,31c-0.1-0.1-0.2-0.2-0.2-0.4l-1.9-14.3l-4.8,0.6c-0.2,0-0.3,0-0.5-0.1c-0.1-0.1-0.2-0.3-0.2-0.4l-0.3-1.9 c0-0.2,0-0.4,0.1-0.5c0.1-0.1,0.2-0.2,0.4-0.2l13.3-1.8c0.2,0,0.4,0,0.5,0.1c0.1,0.1,0.2,0.3,0.2,0.4l0.3,1.9c0,0.2,0,0.4-0.1,0.5 c-0.1,0.1-0.3,0.2-0.4,0.2l-4.8,0.6l1.9,14.3c0,0.2,0,0.3-0.1,0.5c-0.1,0.1-0.2,0.2-0.4,0.2l-2.4,0.3 C345.8,31.1,345.6,31.1,345.5,31z"></path> </g> </g> <g class="st3"> <path d="M385.3,33.3c-0.1-0.1-0.1-0.3-0.1-0.5l0.8-5.7c0-0.2,0.1-0.3,0.2-0.4s0.3-0.1,0.5-0.1l0.5,0.1c0.8,0.1,1.5-0.5,2.1-2 c0.6-1.4,1.1-3.6,1.5-6.5l0.8-5.4c0-0.2,0.1-0.3,0.2-0.4c0.1-0.1,0.3-0.1,0.5-0.1l11.2,1.6c0.2,0,0.3,0.1,0.4,0.2 c0.1,0.1,0.1,0.3,0.1,0.5L402,28.9l1.2,0.2c0.2,0,0.3,0.1,0.4,0.2c0.1,0.1,0.2,0.3,0.1,0.5l-0.8,5.7c0,0.2-0.1,0.3-0.2,0.4 c-0.1,0.1-0.3,0.1-0.5,0.1l-2.4-0.3c-0.2,0-0.3-0.1-0.4-0.2c-0.1-0.1-0.1-0.3-0.1-0.5l0.4-3l-10.5-1.5l-0.4,3 c0,0.2-0.1,0.3-0.2,0.4c-0.1,0.1-0.3,0.1-0.5,0.1l-2.4-0.4C385.5,33.5,385.4,33.5,385.3,33.3z M398.4,28.4l1.7-11.6l-5.3-0.8 l-0.5,3.2c-0.6,4.1-1.5,6.8-2.6,8.1L398.4,28.4z"></path> <path d="M408.5,33.5c-0.1-0.1-0.1-0.3-0.1-0.5l4.4-16.5c0-0.2,0.1-0.3,0.3-0.4c0.1-0.1,0.3-0.1,0.5-0.1l11.2,3 c0.2,0,0.3,0.2,0.4,0.3c0.1,0.1,0.1,0.3,0.1,0.5l-0.5,1.7c0,0.2-0.1,0.3-0.3,0.4c-0.1,0.1-0.3,0.1-0.5,0l-8.3-2.2l-1.2,4.4l7.7,2.1 c0.2,0,0.3,0.1,0.4,0.3s0.1,0.3,0.1,0.5l-0.4,1.6c-0.1,0.2-0.1,0.3-0.3,0.4c-0.1,0.1-0.3,0.1-0.5,0l-7.7-2.1l-1.2,4.6l8.5,2.3 c0.2,0,0.3,0.1,0.4,0.3c0.1,0.1,0.1,0.3,0.1,0.5l-0.5,1.7c0,0.2-0.1,0.3-0.3,0.4c-0.1,0.1-0.3,0.1-0.5,0l-11.4-3.1 C408.7,33.7,408.6,33.6,408.5,33.5z"></path> <path d="M433.1,42.3c-0.1-0.2-0.1-0.3,0-0.5l0.7-1.8c-4.8-2-6.6-5.2-5.2-9.6l0.3-0.9l0.4-0.9c1-2,2.4-3.3,4.2-3.8s3.9-0.3,6.2,0.7 l0.6-1.5c0.1-0.2,0.2-0.3,0.3-0.4s0.3-0.1,0.5,0l2.3,0.9c0.2,0.1,0.3,0.2,0.4,0.3s0.1,0.3,0,0.5l-0.6,1.5c2.3,1,4,2.3,4.9,4 s1,3.6,0.3,5.7c-0.1,0.3-0.2,0.6-0.4,1c-0.1,0.3-0.2,0.6-0.3,0.7c-2.1,4.1-5.6,5.1-10.4,3.1l-0.7,1.8c-0.1,0.2-0.2,0.3-0.3,0.4 c-0.1,0.1-0.3,0.1-0.5,0l-2.3-0.9C433.3,42.5,433.2,42.4,433.1,42.3z M438.7,28.3c-1.3-0.6-2.5-0.7-3.4-0.4c-1,0.3-1.7,1-2.4,2.3 l-0.3,0.7l-0.3,0.8c-0.9,2.5,0.1,4.3,2.8,5.4L438.7,28.3z M444.2,36.7c0.1-0.2,0.2-0.4,0.4-0.9c0.1-0.3,0.2-0.5,0.2-0.6 c0.4-1.3,0.4-2.4-0.1-3.3s-1.4-1.6-2.7-2.2l-3.7,8.8C441.2,39.7,443.1,39.1,444.2,36.7z"></path> <path d="M449.5,48.8c0-0.2,0-0.3,0.1-0.5l8.7-14.7c0.1-0.2,0.2-0.3,0.4-0.3s0.3,0,0.5,0.1l2.1,1.2c0.2,0.1,0.2,0.2,0.3,0.4 s0,0.3-0.1,0.5l-6.1,10.3l13.6-6.1c0.3-0.2,0.6-0.2,0.9,0l1.9,1.1c0.2,0.1,0.3,0.2,0.3,0.4c0,0.2,0,0.3-0.1,0.5l-8.7,14.7 c-0.1,0.2-0.2,0.2-0.4,0.3c-0.2,0-0.3,0-0.5-0.1l-2.1-1.2c-0.2-0.1-0.3-0.2-0.3-0.4s0-0.3,0.1-0.5l6-10.1l-13.4,5.9 c-0.3,0.2-0.6,0.2-0.9,0l-1.9-1.1C449.6,49,449.5,48.9,449.5,48.8z"></path> <path d="M476.4,71.4c0-0.2,0-0.3,0.1-0.5l1.9-2.4l-10-7.8c-0.2-0.1-0.2-0.3-0.2-0.4c0-0.2,0-0.3,0.2-0.5l10.5-13.4 c0.1-0.2,0.3-0.2,0.4-0.2c0.2,0,0.3,0,0.5,0.1l1.9,1.5c0.2,0.1,0.2,0.3,0.3,0.4c0,0.2,0,0.3-0.1,0.5L472.9,60l6,4.7l8.8-11.3 c0.1-0.1,0.2-0.2,0.4-0.2c0.2,0,0.3,0,0.5,0.1l1.9,1.5c0.2,0.1,0.2,0.3,0.3,0.4c0,0.2,0,0.3-0.1,0.5L481.9,67l1,0.8 c0.2,0.1,0.2,0.3,0.3,0.4c0,0.2,0,0.3-0.1,0.5l-3.5,4.5c-0.1,0.2-0.3,0.2-0.4,0.2c-0.2,0-0.3,0-0.5-0.2l-1.9-1.5 C476.5,71.7,476.4,71.5,476.4,71.4z"></path> <path d="M485.2,74.1c0-0.2,0.1-0.3,0.2-0.5l12.1-12c0.1-0.1,0.3-0.2,0.5-0.2c0.2,0,0.3,0.1,0.5,0.2l1.7,1.7 c0.1,0.1,0.2,0.3,0.2,0.4c0,0.2-0.1,0.3-0.2,0.5l-8.5,8.4l14.7-2.5c0.3-0.1,0.6,0,0.9,0.2l1.5,1.6c0.1,0.1,0.2,0.3,0.2,0.5 c0,0.2-0.1,0.3-0.2,0.5l-12.1,12c-0.1,0.1-0.3,0.2-0.4,0.2c-0.2,0-0.3-0.1-0.5-0.2l-1.7-1.7c-0.1-0.1-0.2-0.3-0.2-0.5 s0.1-0.3,0.2-0.4l8.3-8.2l-14.5,2.3c-0.3,0.1-0.6,0-0.9-0.2l-1.6-1.6C485.3,74.4,485.2,74.3,485.2,74.1z"></path> <path d="M502.9,93.4c0-0.2,0.1-0.3,0.2-0.4l11.4-8.9l-3-3.8c-0.1-0.1-0.2-0.3-0.1-0.5c0-0.2,0.1-0.3,0.3-0.4l1.6-1.2 c0.2-0.1,0.3-0.2,0.5-0.2c0.2,0,0.3,0.1,0.4,0.2l8.2,10.6c0.1,0.2,0.2,0.3,0.1,0.5s-0.1,0.3-0.3,0.4l-1.5,1.2 c-0.2,0.1-0.3,0.2-0.5,0.1c-0.2,0-0.3-0.1-0.4-0.3l-3-3.8l-11.4,8.9c-0.1,0.1-0.3,0.2-0.5,0.1s-0.3-0.1-0.4-0.2l-1.5-1.9 C502.9,93.7,502.9,93.5,502.9,93.4z"></path> </g> <polygon class="st0" points="372.1,79.7 370,71.3 367.9,79.7 365.1,177.7 374.9,177.7 "></polygon> <circle class="st0" cx="370" cy="177.7" r="11.9"></circle> <rect x="368.5" y="3.8" class="st4" width="2.9" height="33.2"></rect> </svg> 