<?xml version="1.0" encoding="UTF-8"?> <!-- Generator: Adobe Illustrator 24.0.3, SVG Export Plug-In . SVG Version: 6.00 Build 0) --> <svg xmlns="http://www.w3.org/2000/svg" xmlns:xlink="http://www.w3.org/1999/xlink" id="Layer_1" x="0px" y="0px" viewBox="0 0 168 168" style="enable-background:new 0 0 168 168;" xml:space="preserve"> <g> <path d="M128.7,98.4c1.2-1.5,1.9-3.4,1.9-5.4v-4.5c0-4.7-3.9-8.6-8.6-8.6c-4.7,0-8.6,3.9-8.6,8.6V93c0,2.3,0.9,4.3,2.3,5.8 c-3.7,1.2-7.1,3.5-9.6,6.6l-2.2,2.7c-0.7-0.7-1.6-1.2-2.4-1.6V68.3c0-10.8-7.8-19.9-18.3-21.7c0.2-0.9,0.3-1.9,0.3-2.9v-4.5 c0-1.3-0.2-2.5-0.5-3.7h3.4c1,0,1.9-0.8,1.9-1.9s-0.8-1.9-1.9-1.9h-2.9c-0.5-6.3-3.3-10.1-7.7-10.1c-2,0-3,0.6-3.7,1 c-0.5,0.3-0.7,0.4-1.6,0.4c-0.9,0-1.1-0.1-1.6-0.4c-0.7-0.4-1.7-1-3.7-1c-4.4,0-7.2,3.7-7.7,10.1h-2.9c-1,0-1.9,0.8-1.9,1.9 s0.8,1.9,1.9,1.9H58c-0.4,1.2-0.5,2.5-0.5,3.7v4.5c0,1.2,0.2,2.3,0.4,3.4c-7.2,1.8-13.1,6.9-16.1,13.9L26.7,97.3 c-0.7,1.6-0.7,3.3,0,4.9c0.4,1.1,1.1,2,2,2.6c-1.6,1.6-2.5,3.7-2.5,6.1v33.6c0,1,0.8,1.9,1.9,1.9s1.9-0.8,1.9-1.9v-33.6 c0-2.1,1.4-4,3.3-4.6c0.7,0,1.4-0.1,2-0.2c2.4,0.3,4.3,2.3,4.3,4.8c0,1,0.8,1.9,1.9,1.9s1.9-0.8,1.9-1.9c0-3-1.5-5.6-3.9-7.2 c0.7-0.8,1.4-1.7,1.8-2.7l9.4-22.5l0.1,32.3c0,1,0.8,1.9,1.9,1.9h2.6v31.7c0,1,0.8,1.9,1.9,1.9s1.9-0.8,1.9-1.9v-31.7h9.7v31.7 c0,1,0.8,1.9,1.9,1.9s1.9-0.8,1.9-1.9v-31.7h9.7v31.7c0,1,0.8,1.9,1.9,1.9s1.9-0.8,1.9-1.9v-31.7h1c0.8,2.6,3.2,4.5,6.1,4.5 c0.7,0,1.4-0.1,2.1-0.3l3.8,3.2c3.1,2.5,7.5,2.3,10.3-0.5l2-2v26.9c0,1,0.8,1.9,1.9,1.9s1.9-0.8,1.9-1.9v-31.4 c0-0.8-0.5-1.4-1.2-1.7c-0.7-0.3-1.5-0.1-2,0.4l-5.2,5.2c-1.4,1.4-3.7,1.5-5.3,0.2l-2.6-2.2c1.3-1.1,2.2-2.6,2.6-4.3 c0.1,0.1,0.2,0.2,0.3,0.2l1.3,1.3c0.3,0.3,0.8,0.5,1.3,0.5c0,0,0.1,0,0.1,0c0.5,0,1-0.3,1.3-0.7l3.5-4.3c3.2-3.9,7.9-6.2,13-6.2 c0.5,0,1-0.1,1.5-0.1c0.2,0.1,0.5,0.1,0.7,0.1c7.6,0,13.8,6.2,13.8,13.8v13.4c0,1,0.8,1.9,1.9,1.9s1.9-0.8,1.9-1.9v-13.4 C141.9,107.2,136.3,100.3,128.7,98.4z M61.2,43.7v-4.5c0-1.3,0.3-2.6,0.8-3.7h17.1c0.5,1.2,0.8,2.4,0.8,3.7v4.5 c0,5.1-4.2,9.3-9.3,9.3C65.4,53,61.2,48.8,61.2,43.7z M65.3,25.4c1,0,1.3,0.2,1.8,0.5c0.7,0.4,1.6,1,3.5,1c1.9,0,2.8-0.6,3.5-1 c0.5-0.3,0.8-0.5,1.8-0.5c0.9,0,3.5,0.5,4,6.3H61.3C61.8,25.9,64.4,25.4,65.3,25.4z M90.3,110.9V72.8c0-1-0.8-1.9-1.9-1.9 s-1.9,0.8-1.9,1.9V109H70.6H54.5l-0.1-35.4c0-1.3-0.9-2.4-2.2-2.7c-1.3-0.3-2.5,0.4-3,1.6l-11.3,27c-0.6,1.3-1.7,2.3-3,2.7 c0,0-0.1,0-0.1,0c-0.7,0-1.3,0.1-1.9,0.2c-0.5,0-0.9-0.2-1.4-0.3c-0.6-0.3-1.1-0.8-1.4-1.4c-0.3-0.6-0.3-1.4,0-2l15.2-36.4 c2.5-6.1,7.8-10.4,14.1-11.8c2.3,3.7,6.4,6.2,11.1,6.2c4.8,0,9.1-2.6,11.3-6.6c9,1.2,15.9,8.9,15.9,18.1v39.5c0,0,0,0,0,0v0.8 c0,2.7-2.2,4.9-4.9,4.9C91.5,113.5,90.3,112.3,90.3,110.9z M117.2,93v-4.5c0-2.7,2.2-4.9,4.9-4.9c2.7,0,4.9,2.2,4.9,4.9V93 c0,2.7-2.2,4.9-4.9,4.9C119.4,97.8,117.2,95.6,117.2,93z"></path> <path d="M131,113.5c-1,0-1.9,0.8-1.9,1.9v29.1c0,1,0.8,1.9,1.9,1.9s1.9-0.8,1.9-1.9v-29.1C132.9,114.3,132.1,113.5,131,113.5z"></path> <path d="M122.1,129.2c-1,0-1.9,0.8-1.9,1.9v13.4c0,1,0.8,1.9,1.9,1.9s1.9-0.8,1.9-1.9V131C123.9,130,123.1,129.2,122.1,129.2z"></path> </g> </svg> 