<?xml version="1.0" encoding="UTF-8"?> <!-- Generator: Adobe Illustrator 24.0.3, SVG Export Plug-In . SVG Version: 6.00 Build 0) --> <svg xmlns="http://www.w3.org/2000/svg" xmlns:xlink="http://www.w3.org/1999/xlink" id="Layer_1" x="0px" y="0px" viewBox="0 0 20 20" style="enable-background:new 0 0 20 20;" xml:space="preserve"> <style type="text/css"> .st0{fill:#FFFFFF;} </style> <g> <path class="st0" d="M7.4,14.7c-0.1-0.1-0.1-0.2-0.1-0.2c0-0.1,0-0.1,0-0.1L11,6.1H6.2C6.1,6.1,6,6,5.9,6S5.8,5.8,5.8,5.7V4 c0-0.1,0-0.2,0.1-0.3s0.2-0.1,0.3-0.1h7.6c0.1,0,0.2,0,0.3,0.1s0.1,0.2,0.1,0.3v1.5c0,0.2,0,0.4-0.1,0.5S14.1,6.2,14,6.2l-3.7,8.2 c-0.1,0.3-0.3,0.4-0.6,0.4H7.6C7.5,14.8,7.4,14.7,7.4,14.7z"></path> </g> </svg> 