<?xml version="1.0" encoding="UTF-8"?> <!-- Generator: Adobe Illustrator 24.0.3, SVG Export Plug-In . SVG Version: 6.00 Build 0) --> <svg xmlns="http://www.w3.org/2000/svg" xmlns:xlink="http://www.w3.org/1999/xlink" id="Layer_1" x="0px" y="0px" viewBox="0 0 154 154" style="enable-background:new 0 0 154 154;" xml:space="preserve"> <style type="text/css"> .st0{fill:none;stroke:#003578;stroke-width:5.605;stroke-linejoin:round;stroke-miterlimit:10;} .st1{fill:none;stroke:#003578;stroke-width:5.605;stroke-miterlimit:10;} .st2{fill:#00A5ED;} </style> <g> <polyline class="st0" points="87.2,142.3 87.2,74.4 106,74.4 106,90.8 "></polyline> <polyline class="st0" points="59.1,142.3 59.1,46.2 77.8,46.2 77.8,142.3 "></polyline> <polyline class="st0" points="31,142.3 31,93.1 49.7,93.1 49.7,142.3 "></polyline> <line class="st0" x1="24" y1="147" x2="129.4" y2="147"></line> <path class="st1" d="M94,98.4c3.6-1.9,7.7-3,12-3c14.2,0,25.8,11.5,25.8,25.8c0,7.9-3.6,15-9.2,19.7"></path> <line class="st1" x1="117.2" y1="111.6" x2="94.7" y2="111.6"></line> <line class="st1" x1="117.2" y1="120.1" x2="94.7" y2="120.1"></line> <line class="st1" x1="106" y1="120.6" x2="106" y2="136.6"></line> </g> <path class="st2" d="M151.4,25.4c-0.3-0.3-0.7-0.5-1-0.7c-1.1-2.2-3.2-3.2-5.1-3.2l0,0c-1.4,0-2.5,0.5-3.3,1 c-0.7-0.5-1.5-0.9-2.5-1.1c-1-1.2-2.6-2.7-5-3.2c-0.6-0.1-1.2-0.2-1.8-0.2c-1.3,0-3,0.3-4.8,1.6c-1.4-1.2-3-1.5-4-1.5 c-0.6,0-1.1,0.1-1.7,0.2c-5.6-7.2-7.4-8.4-8.1-8.8c-0.1-0.1-0.3-0.2-0.4-0.3c-0.2-1.1-0.9-2.6-2.7-3.9c-1.1-0.7-2.3-1.1-3.6-1.1l0,0 c-2.7,0-4.4,1.7-5,2.4l-0.1,0.1c-0.4,0.2-0.8,0.5-1.1,0.7c-0.6-0.3-1.2-0.5-1.9-0.6c-0.3,0-0.7-0.1-1-0.1c-0.4,0-0.8,0-1.2,0.1 c-0.6-0.4-1.3-0.6-2-0.8V5.9c-1.5-4-4.1-4.8-6.1-4.8c-0.6,0-1.2,0.1-1.8,0.2c-0.8-0.3-1.7-0.6-2.9-0.6c-1.6,0-2.8,0.5-3.7,0.9 C79.4,2.2,78.5,3,78,3.5c-3.3,0.9-10.6,3-13,3.5c-0.9,0.2-1.7,0.2-2.4,0.2c-0.3,0-0.5,0-0.7,0c-0.3,0-0.5,0-0.7,0 c-1.3,0-4,0-6.1,2.2c-1.3,1.4-2,3.4-1.9,5.6c0,0.4,0.1,0.7,0.1,1.1c-0.6,0.7-1.2,1.7-1.3,3.1c-0.9,0.7-1.8,1.7-2.3,2.9 c-0.6-0.1-1-0.2-1.3-0.2c-0.1,0-0.2,0-0.3,0c-0.3,0-0.5,0-0.8,0c-0.6,0-1.1,0.1-1.6,0.2C45,21.9,44,21.7,43,21.7 c-0.9,0-1.7,0.2-2.5,0.4c-0.6-0.5-1.3-0.9-2.2-1.1c-0.8-1.2-2-2.5-4.1-3.1c-0.1-0.2-0.2-0.3-0.4-0.4c-1.1-1.2-2.7-1.9-4.4-1.9 c-0.3,0-0.5,0-0.8,0c-0.1,0-0.2,0-0.4,0c-0.7-0.5-2-1.1-3.6-1.1c-1.1,0-2.6,0.3-4.2,1.6c-0.2,0.2-0.4,0.4-0.6,0.5 c-1.3,0.3-3.3,0.8-4.7,2.1c-0.3,0.1-0.6,0.2-0.9,0.3c-0.8-0.2-1.5-0.3-1.8-0.3c-0.9,0-1.8,0.2-2.6,0.6c-1.6,0.8-2.6,1.7-3.2,2.6 c-0.8,0.5-1.7,1.3-2.3,2.5l0,0c-0.9,1.3-1.5,2.7-1.6,3.9c-0.9,1-1.7,2.2-2.1,3.5c-0.5,1.8-0.1,3.6,0.9,5c0,0,0,0.1,0.1,0.1 c0,1.2,0.3,2.5,1.2,3.9l0.1,0.1c0.7,1.1,1.6,1.8,2.5,2.3c-0.2,0.6-0.3,1.3-0.2,2c0.2,4.1,3.1,6.9,7.4,7c-1.2,0.5-2.2,1.4-2.9,2.5 c-1.2,1.9-1.4,3.9-0.8,5.7c0.4,1.2,1.2,2.2,2.3,2.9c0.1,0.3,0.1,0.7,0.3,1.1c-0.3,1.7,0.1,3.1,0.6,4c0.6,1,1.4,1.8,2.4,2.3 c0.1,0.2,0.3,0.5,0.5,0.7c-1.1,2.5-0.2,4.5,0.4,5.4c1,1.6,2.8,2.6,4.7,2.6c1.5,0,2.5-0.5,3.4-1l0.2-0.1c0.3-0.1,0.5-0.3,0.8-0.4 c0.2-0.1,0.4-0.2,0.5-0.3c0,0,0,0,0.1,0s0.1,0,0.2,0l0,0c0.2,0.3,0.6,1,0.8,1.4c0.7,1.5,1.5,3,3.3,4c1,0.5,2.1,0.8,3.4,0.8 c1.1,0,2.1-0.2,2.3-0.2c2.3-0.5,4.1-2.4,4.4-4.7l2.1-15.4l3.5-0.6c2.8,2.3,5.5,4.7,6.4,5.5V61c-2.4-2-4.8-4-4.8-4l-10,1.8L34,78.2 c0,0-0.6,0.1-1.2,0.1c-0.3,0-0.5,0-0.7-0.1c-0.5-0.3-1.4-3.1-2.6-4.3c-1.2-1.2-1.3-1.7-3.7-1.8c-0.2,0-0.5,0-0.7,0 c-1.8,0-2.5,0.6-4,1.4c-0.6,0.3-0.9,0.5-1,0.5s0.2-0.4,0.3-1.1c0.2-1.2,1.1-1.7,1.6-3s-0.2-1.3-1-1.4c-0.9-0.1-1.8,0-2-1.1 c-0.2-1-0.4-1.3-1.5-1.4s-0.3-0.8-0.1-1.4s0.1-0.8-0.4-1.5s-0.2-1.3-0.7-2.5s-1.2-1.5-1.8-1.7s-0.4-0.7-0.1-1.2 c0.1-0.2,0.3-0.3,0.5-0.3c0.4,0,0.9,0.2,1.4,0.2c0.9,0.1,0.5,0.2,1.1,0.8c0.4,0.4,0.9,0.6,1.4,0.6c0.2,0,0.4-0.1,0.6-0.3 c0.3-0.5-1.3-1.6-1.8-2.3c-0.4-0.7,0.1-0.7,1-0.7c0.9-0.1,0.6-0.8,0.9-1.2c0.1-0.1,0.3-0.2,0.5-0.2c0.5,0,1.4,0.3,2.3,0.3 c1.2,0,2.3,1.1,3.2,1.1c0.1,0,0.2,0,0.3-0.1c0.9-0.4,0.3-0.4-0.5-1c-0.8-0.7-1-0.7,0.1-1.6c1.1-0.9,1.7-2.1,1.4-2.9 c-0.2-0.8,0.2-1.8,0.2-2.4c-0.1-0.6-1.1-0.9-1.7-1.2c-0.1,0-0.2-0.1-0.3-0.1c-0.3,0-0.5,0.3-1,0.3c0,0,0,0-0.1,0 c-0.6,0-1.7-1.2-2.4-1.7c-0.3-0.2-0.6-0.4-1-0.4s-1,0.2-1.9,0.6c-1.6,0.7-4,1.3-6,1.4c-0.1,0-0.1,0-0.2,0c-1.9,0-1.9-1-2-1.6 c0-0.2,0.1-0.3,0.2-0.3c0.2,0,0.6,0.2,1,0.2c0.1,0,0.2,0,0.3,0c0.7-0.2,0-2-0.5-3.5c-0.4-1.4-0.2-1.9-1.5-2.7 c-0.7-0.5-1.3-0.6-1.7-0.6c-0.3,0-0.4,0.1-0.5,0.2c0,0.1-0.1,0.1-0.1,0.1c-0.1,0-0.3-0.2-0.5-0.6c-0.3-0.5-0.2-1,0.1-1.9 c0.3-0.9-1-1.7-1.4-2.2c-0.4-0.6,1.9-2.6,2.5-2.9s0-0.8-0.3-1.4s0.6-1.6,0.8-2s0.3-0.7,1-0.7s1-0.5,1-1.1s0.4-0.8,1.1-1.2 c0.1,0,0.1-0.1,0.2-0.1c0.5,0,0.9,1,1.1,2.2c0.2,1.1,0.7,1.3,1.2,1.3c0.1,0,0.2,0,0.3,0c0.4-0.1,1.3,0,1.1-0.9s0.2-1.4,0.2-2.3 s0.4-0.3,1.7-0.8c1.3-0.5,0.8-0.4,0.8-0.8c0.1-0.4,0.4-0.6,2.6-1.1s1.9-1,2.7-1.6c0.3-0.2,0.5-0.3,0.7-0.3c0.3,0,0.6,0.3,1,0.6 c0.7,0.5,0.2,0.7,0.7,1c0.1,0,0.2,0,0.3,0c0.6,0,1.9-0.5,2.5-0.6c0.1,0,0.1,0,0.2,0c0.5,0,0.2,0.4,0.3,0.9c0.1,0.6,1.4,0.9,2.7,1.2 c1.3,0.3,1.5,1.6,2.3,2.9s0,1.6,0.7,2.6c0.2,0.3,0.4,0.4,0.5,0.4c0.4,0,0.7-0.8,0.5-1.2c-0.2-0.5-0.3-1.5,0.2-1.5h0.1 c0.6,0.1,1.7,2.3,2.7,2.7c0.1,0,0.2,0.1,0.3,0.1c0.8,0,1.8-1.3,2.6-1.8c0.2-0.1,0.4-0.1,0.6-0.1c1,0,2.6,0.6,3.3,0.6 c0.2,0,0.3,0,0.4-0.1c0.3-0.3,0.5-0.3,0.8-0.3c0.2,0,0.5,0,1,0c1,0,1.1,0.9,1.3,1.5s0.7,0.6,2.2,1.6c0.4,0.3,0.7,0.4,1,0.4 c0.8,0,1.2-0.8,1.4-1.2c0.1-0.1,0.1-0.1,0.2-0.1c0.3,0,0.7,1,2.5,1c2.2,0,2.1-1.1,2.6-2.4s-2.7-2.3-4-2.9s-0.3-1.6,1.7-2.6 s-0.3-2.3,0.7-3.1c1.1-0.8,3.2-0.2,3.7-0.8c0.5-0.7-1.4-1.5-1.9-1.9c-0.6-0.5-1.2-2.6-0.4-3.5c0.3-0.4,1-0.4,2-0.4 c0.4,0,0.9,0,1.5,0c1,0,2.2,0,3.4-0.3C69.5,12.1,80.2,9,80.2,9c1.5-0.4,1.8-1.5,2.9-2.1c0.5-0.2,0.9-0.4,1.2-0.4 c0.4,0,0.9,0.2,1.5,0.6c0.4,0.3,0.8,0.4,1.1,0.4c0.5,0,0.9-0.2,1.5-0.5c0.2-0.1,0.4-0.1,0.5-0.1c0.5,0,0.6,0.6,1.1,1.7 c0.6,1.4,0.2,2.2,0.4,3.5c0.1,0.4,0.2,0.5,0.3,0.5c0.4,0,1.2-0.8,2.3-1c0.2,0,0.4,0,0.6,0c0.9,0,0.6,0.5,0.9,1.3 c0.1,0.2,0.3,0.3,0.5,0.3c0.8,0,2.2-0.8,3.2-0.8c0.1,0,0.1,0,0.2,0c1.2,0.2-0.1,0.7-0.7,1.7c-0.4,0.7-0.2,1.3,0.2,1.3 c0.1,0,0.3-0.1,0.4-0.2c0.4-0.4,0.7-0.4,1.1-0.4c0.2,0,0.5,0,0.8,0.1c0.3,0,0.5,0.1,0.6,0.1c0.2,0,0.3-0.1,0.5-0.5 c0.2-0.7,2.8-2.2,4-2.9c1-0.6,1.4-1.6,2-1.6c0.1,0,0.3,0,0.4,0.2c0.9,0.6-0.2,0.9-0.3,1.6c-0.1,0.7,1.1,1.1,3.6,2.7 c2.3,1.5,9.8,11.7,10.5,12.6c0,0,0,0,0.1,0c0,0,0,0,0.1,0c0.2-0.2,1-1,0.9-1.4s-0.1-1.4,0.7-1.7c0.2-0.1,0.4-0.1,0.5-0.1 c0.4,0,0.5,0.4,0.8,0.8c0.3,0.6,1.1,1.3,2.9,1.3c0.2,0,0.3,0,0.4,0c1.5,0,1.7-0.4,2.4-1.1c0.6-0.7,1.3-1.1,2.2-1.1 c0.2,0,0.4,0,0.6,0.1c1.2,0.3,2,1.4,2.6,2.3s1.3,0.8,2.2,0.9c0.8,0.1,1.1,0.7,1.7,1.7c0.3,0.5,0.7,0.7,1.2,0.7s1.2-0.1,1.8-0.1 c1.4,0,1.4-0.9,2-1.6c0.2-0.2,0.3-0.4,0.4-0.4c0.1,0,0.1,0.4,0.3,1c0.3,0.9,1.7,1.2,2.2,1.7c0.6,0.4-0.3,0.3-1.3,1.1s0.2,1,0.4,2.2 s-1.6,1.7-2.2,1.9c-0.6,0.2-0.7-0.1-1.1,1.4c-0.4,1.5,0.7,3.3,1.1,4.5c0.4,1.2,0.3,1.2-0.3,1.6c-0.6,0.4-0.9,0.8-1.5,1.6 c-0.3,0.4-0.6,0.6-0.7,0.6c-0.1,0-0.2-0.2-0.3-0.6c0-0.3-0.2-0.4-0.4-0.4c-0.5,0-1.3,0.5-2.2,0.6c-0.3,0.1-0.5,0.1-0.8,0.1 c-0.8,0-1.4-0.3-2.3-0.4c-0.2,0-0.3,0-0.4,0c-0.6,0-0.3,0.4-0.2,1.6c0,1.4-0.9,6.8-0.9,7.4c0,0.5,0.7,0.6,1,0.6h0.1 c0.3,0,0.2,0.5,0.2,1s-0.9,0.4-1.6,0.7c-0.3,0.1-0.5,0.1-0.7,0.1c-0.4,0-0.7-0.2-1-0.5c-0.1-0.1-0.3-0.2-0.4-0.2 c-0.4,0-1.1,0.4-1.8,1.1c-1.1,1-3.8,1.2-4,2.1c-0.2,0.6,0.2,0.6,0.8,0.6c0.1,0,0.3,0,0.4,0s0.3,0,0.4,0c0.8,0.1,0.4,1,0.4,2.2 s0.4,1.4,1.2,2.9s1.1,1.6,1.1,2.4s0.2,1.8-1,3.3s0.5,2,0.6,2.7c0,0.2,0,0.3-0.1,0.3c-0.2,0-0.6-0.3-1.2-0.7 c-0.4-0.3-0.8-0.3-1.2-0.3c-0.4,0-0.8,0.1-1,0.1h-0.1c-0.6,0-0.6-0.8-1.1-1.4c-0.2-0.2-0.7-0.3-1.5-0.3c-1.8,0-4.6,0.3-6.4,0.4 c-2.1,0.1-3.7,0.4-4.9,0.9c0.5,1,0.8,2.2,0.8,3.4V77c0.2-0.1,0.4-0.1,0.6-0.2c0.7-0.3,1.8-0.7,3.7-0.7c0.9,0,2-0.1,3.1-0.2 c0.6,0,1.2-0.1,1.7-0.1c1.3,1.2,2.7,1.5,3.9,1.6c0.1,0,0.2,0,0.3,0c0.1,0,0.1,0,0.2,0c0.8,0.5,1.8,1,3.2,1c1.6,0,3.1-0.7,4.2-1.8 c1.1-1.2,1.6-2.8,1.5-4.5c0-0.4-0.1-0.9-0.2-1.2c0.8-1.8,0.7-3.4,0.7-4.2v-0.1c0-2.1-0.8-3.5-1.4-4.3c-0.1-0.2-0.3-0.5-0.5-0.8 c0,0,0,0,0-0.1c0.6-0.1,1.1-0.2,1.7-0.4h0.1c5.1-1,5.3-5.2,5.3-6v-0.1c0-0.6,0.1-2.3-0.9-3.9c0-0.1,0-0.3,0.1-0.4 c0.4,0.1,0.9,0.2,1.3,0.2c2.8,0,4.4-1.9,5-2.6l0.3-0.4c0.1-0.2,0.3-0.3,0.4-0.4l0,0c2.5-1.9,3.2-4.5,2.2-7.8 c-0.1-0.2-0.1-0.4-0.2-0.6c2.2-1.7,2.6-3.9,2.6-5.3c0.6-0.9,0.9-1.8,1-2.5C153.9,28.7,153,26.7,151.4,25.4z"></path> </svg> 