<?xml version="1.0" encoding="UTF-8"?> <!-- Generator: Adobe Illustrator 22.1.0, SVG Export Plug-In . SVG Version: 6.00 Build 0) --> <svg xmlns="http://www.w3.org/2000/svg" xmlns:xlink="http://www.w3.org/1999/xlink" x="0px" y="0px" viewBox="0 0 200 200" style="enable-background:new 0 0 200 200;" xml:space="preserve"> <style type="text/css"> .st0{fill:#FFAE00;} </style> <g id="bkg"> </g> <g id="Layer_1"> <g> <rect x="95.9" y="99" class="st0" width="8.2" height="8.2"></rect> <polygon class="st0" points="80.2,47.2 59.4,68 80.2,68 "></polygon> <rect x="74.6" y="99" class="st0" width="8.2" height="8.2"></rect> <rect x="95.9" y="59.6" class="st0" width="8.2" height="8.2"></rect> <rect x="117.2" y="99" class="st0" width="8.2" height="8.2"></rect> <path class="st0" d="M139.7,46.7H85.6v23.6c0,1.7-1.4,3.1-3.1,3.1H58.9v78.5c0,0.8,0.6,1.4,1.4,1.4h79.4c0.8,0,1.4-0.6,1.4-1.4 V48.1C141.1,47.3,140.5,46.7,139.7,46.7z M108.4,142.6H72.3c-1.7,0-3.1-1.4-3.1-3.1s1.4-3.1,3.1-3.1h36.1c1.7,0,3.1,1.4,3.1,3.1 S110.1,142.6,108.4,142.6z M127.7,133.6H72.3c-1.7,0-3.1-1.4-3.1-3.1s1.4-3.1,3.1-3.1h55.4c1.7,0,3.1,1.4,3.1,3.1 S129.4,133.6,127.7,133.6z M127.7,124.5H72.3c-1.7,0-3.1-1.4-3.1-3.1s1.4-3.1,3.1-3.1h55.4c1.7,0,3.1,1.4,3.1,3.1 S129.4,124.5,127.7,124.5z M130.8,109.5c0,1.7-1.4,3.1-3.1,3.1H115c-1.7,0-3.1-1.4-3.1-3.1V96.7c0-1.7,1.4-3.1,3.1-3.1h3.1 c-0.2-1.6-1-3-2.1-4.1c-1.4-1.4-3.3-2.2-5.4-2.2c-2.7,0-5.3-0.8-7.6-2.3v8.6h3.3c1.7,0,3.1,1.4,3.1,3.1v12.7 c0,1.7-1.4,3.1-3.1,3.1H93.6c-1.7,0-3.1-1.4-3.1-3.1V96.7c0-1.7,1.4-3.1,3.1-3.1h3.3V85c-2.2,1.5-4.9,2.3-7.6,2.3 c-3.7,0-6.9,2.7-7.4,6.3H85c1.7,0,3.1,1.4,3.1,3.1v12.7c0,1.7-1.4,3.1-3.1,3.1H72.3c-1.7,0-3.1-1.4-3.1-3.1V96.7 c0-1.7,1.4-3.1,3.1-3.1h3.3c0.6-7.1,6.5-12.6,13.7-12.6c4.2,0,7.6-3.4,7.6-7.5v-0.4h-3.3c-1.7,0-3.1-1.4-3.1-3.1V57.3 c0-1.7,1.4-3.1,3.1-3.1h12.7c1.7,0,3.1,1.4,3.1,3.1V70c0,1.7-1.4,3.1-3.1,3.1h-3.3v0.4c0,4.2,3.4,7.5,7.6,7.5c3.7,0,7.1,1.4,9.7,4 c2.3,2.3,3.7,5.3,4,8.5h3.3c1.7,0,3.1,1.4,3.1,3.1V109.5z"></path> </g> </g> </svg> 