<?xml version="1.0" encoding="UTF-8"?> <!-- Generator: Adobe Illustrator 24.0.3, SVG Export Plug-In . SVG Version: 6.00 Build 0) --> <svg xmlns="http://www.w3.org/2000/svg" xmlns:xlink="http://www.w3.org/1999/xlink" id="Layer_1" x="0px" y="0px" viewBox="0 0 264 264" style="enable-background:new 0 0 264 264;" xml:space="preserve"> <style type="text/css"> .st0{fill:#FFAE00;} .st1{opacity:0.8;} .st2{fill:#FFF8B9;} </style> <g> <circle class="st0" cx="132" cy="132" r="131.9"></circle> <g class="st1"> <path class="st2" d="M132,52.4c1.5,0,2.8-1.3,2.8-2.8V30.3c0-1.5-1.3-2.8-2.8-2.8s-2.8,1.3-2.8,2.8v19.3 C129.2,51.1,130.5,52.4,132,52.4z"></path> <path class="st2" d="M161.5,60.3c0.4,0.2,0.9,0.4,1.4,0.4c1,0,1.9-0.5,2.4-1.4l9.6-16.7c0.8-1.3,0.3-3.1-1-3.8 c-0.4-0.2-0.9-0.4-1.4-0.4c-1,0-1.9,0.5-2.4,1.4l-9.6,16.7C159.7,57.8,160.2,59.5,161.5,60.3z"></path> <path class="st2" d="M185.5,83.3c0.5,0,1-0.1,1.4-0.4l16.7-9.6c0.6-0.4,1.1-1,1.3-1.7c0.2-0.7,0.1-1.5-0.3-2.1 c-0.5-0.9-1.4-1.4-2.4-1.4c-0.5,0-1,0.1-1.4,0.4l-16.7,9.6c-1.3,0.8-1.8,2.5-1,3.8C183.6,82.8,184.5,83.3,185.5,83.3z"></path> <path class="st2" d="M213.1,108.6h-19.3c-1.5,0-2.8,1.3-2.8,2.8c0,1.5,1.3,2.8,2.8,2.8h19.3c1.5,0,2.8-1.3,2.8-2.8 C215.9,109.9,214.7,108.6,213.1,108.6z"></path> <path class="st2" d="M203.6,149.5l-16.7-9.6c-0.4-0.2-0.9-0.4-1.4-0.4c-1,0-1.9,0.5-2.4,1.4c-0.8,1.3-0.3,3.1,1,3.8l16.7,9.6 c0.4,0.2,0.9,0.4,1.4,0.4c1,0,1.9-0.5,2.4-1.4c0.4-0.6,0.5-1.4,0.3-2.1S204.3,149.9,203.6,149.5z"></path> <path class="st2" d="M78.5,139.5c-0.5,0-1,0.1-1.4,0.4l-16.7,9.6c-0.6,0.4-1.1,1-1.3,1.7c-0.2,0.7-0.1,1.5,0.3,2.1 c0.5,0.9,1.4,1.4,2.4,1.4c0.5,0,1-0.1,1.4-0.4l16.7-9.6c0.6-0.4,1.1-1,1.3-1.7c0.2-0.7,0.1-1.5-0.3-2.1 C80.4,140.1,79.5,139.5,78.5,139.5z"></path> <path class="st2" d="M73,111.4c0-1.5-1.3-2.8-2.8-2.8H50.9c-1.5,0-2.8,1.3-2.8,2.8c0,1.5,1.3,2.8,2.8,2.8h19.3 C71.7,114.2,73,113,73,111.4z"></path> <path class="st2" d="M60.4,73.3l16.7,9.6c0.4,0.2,0.9,0.4,1.4,0.4c1,0,1.9-0.5,2.4-1.4c0.4-0.6,0.5-1.4,0.3-2.1 c-0.2-0.7-0.7-1.3-1.3-1.7l-16.7-9.6c-0.4-0.2-0.9-0.4-1.4-0.4c-1,0-1.9,0.5-2.4,1.4C58.6,70.8,59,72.5,60.4,73.3z"></path> <path class="st2" d="M98.7,59.3c0.5,0.9,1.4,1.4,2.4,1.4c0.5,0,1-0.1,1.4-0.4c1.3-0.8,1.8-2.5,1-3.8l-9.6-16.7 c-0.5-0.9-1.4-1.4-2.4-1.4c-0.5,0-1,0.1-1.4,0.4c-1.3,0.8-1.8,2.5-1,3.8L98.7,59.3z"></path> <path class="st2" d="M154.5,191.2c0-16.2,6.2-32.3,17.4-45.2c8.3-9.6,12.9-21.9,12.9-34.6c0-14.7-5.9-28.3-16.5-38.4 c-9.9-9.3-22.8-14.5-36.3-14.5c-1,0-2,0-2.9,0.1c-27.5,1.5-49.9,25.1-49.9,52.7c0,12.8,4.6,25.1,12.9,34.7 c11.2,12.9,17.4,28.7,17.4,44.5v0.6c0,1.7,1,3.2,2.4,3.9v2.6c-3.1,0.7-5.4,3.4-5.4,6.7c0,3.3,2.3,6,5.4,6.7v2.5 c0,2.9,2.3,5.2,5.2,5.2h30c2.9,0,5.2-2.3,5.2-5.2v-2.5c3.1-0.7,5.4-3.4,5.4-6.7c0-3.3-2.3-6-5.4-6.7v-2.6 C153.6,194.4,154.5,192.9,154.5,191.2z M150.7,203.2c0.7,0,1.3,0.6,1.3,1.3c0,0.7-0.6,1.3-1.3,1.3h-1.3h-34.7h-1.3 c-0.7,0-1.3-0.6-1.3-1.3c0-0.7,0.6-1.3,1.3-1.3h1.3h34.7H150.7z M146.6,197.6h-29.1v-1.9h29.1V197.6z M96.3,142.4 c-7.5-8.6-11.6-19.6-11.6-31c0-24.7,20.1-45.8,44.6-47.1c0.9,0,1.8-0.1,2.6-0.1c12.1,0,23.7,4.6,32.5,13 c9.5,9,14.8,21.2,14.8,34.3c0,11.4-4.1,22.3-11.5,30.9c-11.9,13.7-18.5,30.6-18.8,47.8h-33.9C115,173.1,108.3,156.2,96.3,142.4z M146.6,213.3h-29.1v-1.9h29.1V213.3z"></path> <path class="st2" d="M143.8,121.6c-0.7,0-1.5,0.3-2,0.8s-0.8,1.2-0.8,2l0,15.6c0,1.5,1.3,2.8,2.8,2.8h0c0.7,0,1.5-0.3,2-0.8 s0.8-1.2,0.8-2l0-15.6C146.6,122.9,145.4,121.6,143.8,121.6z"></path> <path class="st2" d="M131.9,99.7L131.9,99.7c3.6,0,7-1.4,9.5-3.9c2.5-2.5,3.9-5.9,3.9-9.5c0-3.6-1.4-6.9-3.9-9.5 c-2.5-2.5-5.8-3.9-9.2-3.9l-0.3,0c-3.6,0-6.9,1.4-9.5,3.9c-2.5,2.5-3.9,5.9-3.9,9.5c0,3.6,1.4,6.9,3.9,9.5 C125,98.3,128.3,99.7,131.9,99.7z M126.4,80.8c1.5-1.5,3.4-2.3,5.5-2.3c2.1,0,4,0.8,5.5,2.3c1.5,1.5,2.3,3.4,2.3,5.5 c0,2.1-0.8,4-2.3,5.5c-1.5,1.5-3.4,2.3-5.5,2.3c-4.3,0-7.8-3.5-7.8-7.8C124.1,84.2,124.9,82.3,126.4,80.8z"></path> <path class="st2" d="M120.1,121.7c-0.7,0-1.5,0.3-2,0.8c-0.5,0.5-0.8,1.2-0.8,2l0,15.6c0,1.5,1.3,2.8,2.8,2.8h0 c0.7,0,1.5-0.3,2-0.8c0.5-0.5,0.8-1.2,0.8-2l0-15.6C122.9,123,121.7,121.7,120.1,121.7z"></path> <path class="st2" d="M121,107.9c2.2-0.3,5.3-0.4,9.3-0.4c0.5,0,1.1,0,1.7,0c0.9,0,1.7,0,2.5,0c3.5,0,6.3,0.1,8.4,0.3 c6,0.7,10.5,5.7,10.5,11.7l0,20.5c0,1.5,1.3,2.8,2.8,2.8h0c1.5,0,2.8-1.3,2.8-2.8l0-20.5c0-8.9-6.7-16.3-15.5-17.3 c-2.2-0.2-5.2-0.4-9-0.4c-0.8,0-1.6,0-2.5,0c-0.6,0-1.2,0-1.8,0c-4.1,0-7.4,0.1-9.8,0.4c-8.8,1-15.4,8.5-15.4,17.4l0,20.4 c0,1.5,1.3,2.8,2.8,2.8c1.5,0,2.8-1.3,2.8-2.8l0-20.4C110.6,113.6,115.1,108.6,121,107.9z"></path> <path class="st2" d="M122.5,163.4c1.5,0,2.8-1.3,2.8-2.8c0-1.5-1.3-2.8-2.8-2.8h-5.9c-1.5,0-2.8,1.3-2.8,2.8 c0,1.5,1.3,2.8,2.8,2.8H122.5z"></path> <path class="st2" d="M142.5,157.8h-5.9c-1.5,0-2.8,1.3-2.8,2.8c0,1.5,1.3,2.8,2.8,2.8h5.9c1.5,0,2.8-1.3,2.8-2.8 C145.3,159.1,144,157.8,142.5,157.8z"></path> </g> </g> </svg> 