<?xml version="1.0" encoding="UTF-8"?> <!-- Generator: Adobe Illustrator 24.0.3, SVG Export Plug-In . SVG Version: 6.00 Build 0) --> <svg xmlns="http://www.w3.org/2000/svg" xmlns:xlink="http://www.w3.org/1999/xlink" id="Layer_1" x="0px" y="0px" viewBox="0 0 168 168" style="enable-background:new 0 0 168 168;" xml:space="preserve"> <g> <path d="M39.2,84h33.6V43H39.2c-2.1,0-3.7,1.7-3.7,3.7v33.6C35.5,82.3,37.2,84,39.2,84z M39.2,46.7h29.8v33.6H39.2V46.7z"></path> <path d="M39.2,87.7l-7.5,41h48.5l-7.5-41H39.2z M36.2,125l6.1-33.6h27.4l6.1,33.6H36.2z"></path> <path d="M132.5,80.3V46.7c0-2.1-1.7-3.7-3.7-3.7H95.2v41h33.6C130.8,84,132.5,82.3,132.5,80.3z M98.9,46.7h29.8v33.6H98.9V46.7z"></path> <rect x="76.5" y="65.3" width="14.9" height="3.7"></rect> <polygon points="76.5,140 35.5,140 35.5,132.5 31.8,132.5 31.8,143.7 80.3,143.7 80.3,132.5 76.5,132.5 "></polygon> <path d="M136.2,128.8l-7.5-41H95.2l-7.5,41H136.2z M98.3,91.5h27.4l6.1,33.6H92.2L98.3,91.5z"></path> <polygon points="132.5,140 91.5,140 91.5,132.5 87.7,132.5 87.7,143.7 136.2,143.7 136.2,132.5 132.5,132.5 "></polygon> <path d="M91.5,46.7H76.5v14.9h14.9V46.7z M87.7,57.9h-7.5v-7.5h7.5V57.9z"></path> <polygon points="54.2,39.2 57.9,39.2 57.9,28 65.3,28 65.3,39.2 69.1,39.2 69.1,28 72.8,28 72.8,24.3 50.4,24.3 50.4,28 54.2,28 "></polygon> <polygon points="98.9,39.2 102.7,39.2 102.7,28 110.1,28 110.1,39.2 113.8,39.2 113.8,28 117.6,28 117.6,24.3 95.2,24.3 95.2,28 98.9,28 "></polygon> <polygon points="91.5,72.8 87.7,72.8 87.7,76.5 80.3,76.5 80.3,72.8 76.5,72.8 76.5,80.3 91.5,80.3 "></polygon> </g> </svg> 