<?xml version="1.0" encoding="UTF-8"?> <!-- Generator: Adobe Illustrator 24.0.3, SVG Export Plug-In . SVG Version: 6.00 Build 0) --> <svg xmlns="http://www.w3.org/2000/svg" xmlns:xlink="http://www.w3.org/1999/xlink" id="Layer_1" x="0px" y="0px" viewBox="0 0 264 264" style="enable-background:new 0 0 264 264;" xml:space="preserve"> <style type="text/css"> .st0{clip-path:url(#SVGID_2_);fill:#4B2300;} .st1{opacity:0.6;fill:#F08681;} </style> <g> <g> <defs> <circle id="SVGID_1_" cx="132" cy="132" r="131.9"></circle> </defs> <use xlink:href="#SVGID_1_" style="overflow:visible;fill:#4B2300;"></use> <clipPath id="SVGID_2_"> <use xlink:href="#SVGID_1_" style="overflow:visible;"></use> </clipPath> <circle class="st0" cx="132" cy="132" r="131.9"></circle> </g> <path class="st1" d="M215.5,189.8h-18.9l-2.9-12.3c-0.3-1.3-1.4-2.2-2.7-2.2h-6.1l6.4-46.6c4.1-0.5,7.1-4.1,6.8-8.2 c-0.3-4.1-4-7.3-8.2-7c-2,0.2-3.8,1.1-5,2.5l-101.1-37L93,57.2c1-2.4,1.1-4.7,0.2-6.7c-1-2.2-3.2-4.1-6.4-5.5 c-1.4-0.6-2.8-0.9-4.2-0.9c-3.5,0-6.6,1.8-8.7,5.1c-0.7,1.2-18.3,28.8-13.8,59c0.2,1.2,1.2,2,2.3,2c0.1,0,0.2,0,0.3,0l1.7-0.2 l0.9,72h-3c-1,0-1.9,0.8-1.9,1.9v6h-9.2c-1.5,0-2.8,1.3-2.8,2.8v9.4c0,1.5,1.3,2.8,2.8,2.8h164.3c1.5,0,2.8-1.3,2.8-2.8v-9.4 C218.3,191.1,217,189.8,215.5,189.8z M190.6,188.9h-16.1l1.9-8h12.4L190.6,188.9z M174.1,175.3c-1.3,0-2.4,0.9-2.7,2.2l-2.9,12.3 h-17.7l-19.4-87.3l51.4,18.8c0,0.1,0,0.3,0,0.4c0.2,2.9,2.2,5.4,4.7,6.4l-6.5,47.1H174.1z M115.5,165.2l6.4-5l-0.6,9.4l-5.8-4.3 L115.5,165.2z M126.8,156.4l10-7.8l8.7,38.9l-19.7-14.6L126.8,156.4z M127,152.7l2.3-37.7l6.8,30.6L127,152.7z M122.1,156.5 l-5.6,4.4l7.4-33.2L122.1,156.5z M114.8,168.3l6.3,4.6l-1,16.9h-10L114.8,168.3z M125.6,176.3l18.3,13.6h-19.2L125.6,176.3z M188.3,121.3c0-0.5,0.1-1.1,0.5-1.5c0.3-0.4,0.8-0.7,1.6-0.7c1,0,1.9,0.8,2,1.9c0.1,1.1-0.7,2.1-1.9,2.2l-0.2,0 C189.3,123.2,188.4,122.4,188.3,121.3z M82.5,48.8c0.8,0,1.6,0.2,2.4,0.5c2.1,0.9,3.5,2,4,3.1c0.4,0.8,0.3,1.8-0.2,2.9l-21.4,49.5 l-3,0.4c-3-27.6,13.2-53.3,13.4-53.6C79,49.8,80.6,48.8,82.5,48.8z M68.1,109.5l1.2-0.2c0.8-0.1,1.5-0.6,1.8-1.4l10.3-23.8 l43.8,16.1l-19.9,89.6H73.9v-6c0-1-0.8-1.9-1.9-1.9h-3L68.1,109.5z M64.2,185.8h6v4.1h-6V185.8z M212.7,199.2H54v-3.8h158.7V199.2z "></path> </g> </svg> 