<?xml version="1.0" encoding="UTF-8"?> <!-- Generator: Adobe Illustrator 24.0.3, SVG Export Plug-In . SVG Version: 6.00 Build 0) --> <svg xmlns="http://www.w3.org/2000/svg" xmlns:xlink="http://www.w3.org/1999/xlink" id="Layer_1" x="0px" y="0px" viewBox="0 0 154 154" style="enable-background:new 0 0 154 154;" xml:space="preserve"> <style type="text/css"> .st0{fill:#000B0B;} .st1{fill:none;stroke:#000B0B;stroke-width:4;stroke-linecap:round;stroke-miterlimit:10;} </style> <path class="st0" d="M115.9,142.9l-4.5-15.7l28.8-39.2l3.5,18.7L115.9,142.9L115.9,142.9z M70.8,145.6l4.5-15.6h30.8l4.5,15.6H70.8 L70.8,145.6z M149.6,105.9l-4.9-26.5c-0.3-1.4-1.5-2.3-2.9-2.3h-20.2c-1.6,0-3,1.2-3,2.8c0,1.6,1.3,2.8,3,2.8h15.2l-30.7,41.7H78.6 l7.1-9.5c1-1.3,0.7-3.2-0.6-4.1c-1.3-1-3.2-0.7-4.1,0.6l-9.3,12.5c-0.3,0.4-1.2,2-1.4,2.5l-6.1,21.6c-0.5,1.9,0.9,3.8,2.9,3.8 c0,0,48,0,48.1,0c0.8,0,1.6-0.4,2.2-1.1l31-40.3C149.3,108.9,149.8,107.3,149.6,105.9L149.6,105.9z"></path> <path class="st0" d="M11.3,145.6l4.5-15.6h30.8l4.5,15.6H11.3L11.3,145.6z M61.4,110.8c-1.3-1-3.1-0.8-4.2,0.4l-10.7,13.2H18.8 l23.1-30.8c1-1.3,0.7-3.1-0.6-4.1c-1.3-1-3.1-0.7-4.1,0.6l-25.6,34.1c-0.3,0.4-0.5,0.9-0.6,1.4c-0.2,0.3-6.6,22.5-6.6,22.5 c-0.5,1.9,0.9,3.8,2.9,3.8H55c2.2,0,3.6-2.2,2.7-4.2l-5.8-20.4l9.9-12.2C62.8,113.7,62.6,111.9,61.4,110.8L61.4,110.8z"></path> <path class="st0" d="M93.7,99.1l-4.5-18.8l28.5-36.5l4.3,19.4L93.7,99.1L93.7,99.1z M48.3,102.6l4.7-19.9h30.6h0l4.7,19.9H48.3 L48.3,102.6z M87.9,39.1C87.9,39.1,87.9,39.1,87.9,39.1l26.1,0l-29.7,38H56.8L87.9,39.1L87.9,39.1z M128,63.3l-5.6-25.5 c-0.6-3.3-3.4-4.3-4.9-4.3H86c-1.3,0-2.3,0.7-2.8,1.8l-34,41.6c-0.2,0.2-1.2,1.8-1.4,2.3l-6.1,25.5c-0.5,2,1.3,3.8,2.9,3.8 c0,0,47,0,47.6,0c0.9,0,1.7-0.1,2.3-0.8l33-41.9C128,65.1,128.2,64.2,128,63.3L128,63.3z"></path> <g> <line class="st1" x1="137.9" y1="24.2" x2="142.1" y2="28.5"></line> <line class="st1" x1="127.6" y1="14" x2="131.9" y2="18.2"></line> <line class="st1" x1="131.9" y1="24.2" x2="127.6" y2="28.5"></line> <line class="st1" x1="142.1" y1="14" x2="137.9" y2="18.2"></line> </g> <g> <line class="st1" x1="32.6" y1="62.4" x2="38.7" y2="68.5"></line> <line class="st1" x1="18" y1="47.7" x2="24" y2="53.8"></line> <line class="st1" x1="24" y1="62.4" x2="18" y2="68.5"></line> <line class="st1" x1="38.7" y1="47.7" x2="32.6" y2="53.8"></line> </g> </svg> 