<?xml version="1.0" encoding="UTF-8"?> <!-- Generator: Adobe Illustrator 24.0.3, SVG Export Plug-In . SVG Version: 6.00 Build 0) --> <svg xmlns="http://www.w3.org/2000/svg" xmlns:xlink="http://www.w3.org/1999/xlink" id="Layer_1" x="0px" y="0px" viewBox="0 0 20 20" style="enable-background:new 0 0 20 20;" xml:space="preserve"> <style type="text/css"> .st0{fill:#FFFFFF;} </style> <g> <path class="st0" d="M7.5,14.9c-0.7-0.3-1.2-0.7-1.6-1.2c-0.4-0.5-0.5-1.1-0.6-1.7c0-0.1,0-0.2,0.1-0.2c0.1-0.1,0.1-0.1,0.2-0.1 h2.3c0.3,0,0.4,0.1,0.5,0.3c0.1,0.4,0.3,0.6,0.6,0.8S9.6,13,10,13c0.5,0,0.8-0.1,1.1-0.4s0.5-0.7,0.5-1.2c0-0.4-0.1-0.8-0.4-1.1 C10.8,10,10.4,9.9,10,9.9c-0.3,0-0.5,0-0.6,0.1c-0.2,0.1-0.3,0.2-0.5,0.3c-0.2,0.1-0.3,0.2-0.4,0.2H6.2c-0.1,0-0.2,0-0.2-0.1 c-0.1-0.1-0.1-0.2-0.1-0.2l0.6-5.6c0-0.1,0.1-0.3,0.2-0.4C6.7,4.1,6.8,4,7,4h6.5c0.1,0,0.2,0,0.3,0.1c0.1,0.1,0.1,0.2,0.1,0.3V6 c0,0.1,0,0.2-0.1,0.3c-0.1,0.1-0.2,0.1-0.3,0.1H8.8l-0.2,2C8.9,8.2,9.2,8.1,9.5,8c0.3-0.1,0.7-0.1,1.2-0.1c0.7,0,1.3,0.2,1.9,0.5 c0.6,0.3,1.1,0.7,1.4,1.3s0.5,1.2,0.5,1.9c0,0.7-0.2,1.4-0.6,2s-0.9,1.1-1.6,1.4s-1.5,0.5-2.5,0.5C9,15.4,8.2,15.2,7.5,14.9z"></path> </g> </svg> 