<?xml version="1.0" encoding="UTF-8"?> <!-- Generator: Adobe Illustrator 24.0.3, SVG Export Plug-In . SVG Version: 6.00 Build 0) --> <svg xmlns="http://www.w3.org/2000/svg" xmlns:xlink="http://www.w3.org/1999/xlink" id="Layer_1" x="0px" y="0px" viewBox="0 0 154 154" style="enable-background:new 0 0 154 154;" xml:space="preserve"> <style type="text/css"> .st0{fill:none;stroke:#00327B;stroke-width:5.605;stroke-linecap:round;stroke-linejoin:round;stroke-miterlimit:10;} </style> <g> <path class="st0" d="M109.8,146H44.2v-9.1c0-0.6,0.4-1,1-1h63.6c0.6,0,1,0.4,1,1V146z"></path> <path class="st0" d="M99.7,135.9H54.3v-9.1c0-0.6,0.4-1,1-1h43.4c0.6,0,1,0.4,1,1V135.9z"></path> <polyline class="st0" points="82,41.6 82,125.8 72,125.8 72,43.5 "></polyline> <circle class="st0" cx="77" cy="17.4" r="7.6"></circle> <path class="st0" d="M54.3,93c0,7-10.2,12.6-22.7,12.6C19.1,105.6,8.9,100,8.9,93H54.3z"></path> <polyline class="st0" points="8.9,93 31.6,52.7 54.3,93 "></polyline> <path class="st0" d="M99.7,77.9c0,7,10.2,12.6,22.7,12.6c12.5,0,22.7-5.6,22.7-12.6H99.7z"></path> <polyline class="st0" points="145.1,77.9 122.4,37.5 99.7,77.9 "></polyline> <line class="st0" x1="77" y1="24.9" x2="77" y2="35"></line> <line class="st0" x1="8.9" y1="55.2" x2="145.1" y2="30"></line> </g> </svg> 