<?xml version="1.0" encoding="UTF-8"?> <!-- Generator: Adobe Illustrator 24.0.3, SVG Export Plug-In . SVG Version: 6.00 Build 0) --> <svg xmlns="http://www.w3.org/2000/svg" xmlns:xlink="http://www.w3.org/1999/xlink" id="Layer_1" x="0px" y="0px" viewBox="0 0 168 168" style="enable-background:new 0 0 168 168;" xml:space="preserve"> <g> <path d="M84,116.8c-3.3,0-6.5-0.5-9.6-1.4c-0.2-0.1-0.4-0.1-0.6-0.1c-0.8,0-1.5,0.5-1.8,1.3c-0.1,0.5-0.1,1,0.1,1.4 c0.2,0.4,0.6,0.8,1.1,0.9c3.4,1.1,7,1.6,10.7,1.6c20.1,0,36.5-16.4,36.5-36.5S104.1,47.5,84,47.5S47.5,63.9,47.5,84 c0,3.5,0.5,7,1.5,10.3c0.2,0.8,1,1.3,1.8,1.3c0.2,0,0.4,0,0.5-0.1c1-0.3,1.5-1.3,1.3-2.3c-0.9-3-1.3-6.1-1.3-9.3 c0-18.1,14.7-32.8,32.8-32.8c18.1,0,32.8,14.7,32.8,32.8C116.8,102.1,102.1,116.8,84,116.8z"></path> <path d="M142.1,75.2L130.7,73l-0.1-0.3c-1.2-4.9-3.1-9.5-5.7-13.8l-0.1-0.2l6.4-9.6c0.5-0.7,0.4-1.7-0.2-2.4l-9.8-9.8 c-0.4-0.4-0.8-0.5-1.3-0.5c-0.4,0-0.7,0.1-1,0.3l-9.6,6.4L109,43c-4.3-2.6-8.9-4.5-13.7-5.7L95,37.3l-2.3-11.3 c-0.2-0.9-0.9-1.5-1.8-1.5H77.1c-0.9,0-1.7,0.6-1.8,1.5L73,37.3l-0.3,0.1c-4.9,1.2-9.5,3.1-13.7,5.7l-0.2,0.1l-9.6-6.4 c-0.3-0.2-0.7-0.3-1-0.3c-0.5,0-1,0.2-1.3,0.5L37,46.8c-0.6,0.6-0.7,1.6-0.2,2.4l6.4,9.6L43,59c-2.6,4.3-4.5,8.9-5.7,13.8L37.3,73 l-11.3,2.3c-0.9,0.2-1.5,0.9-1.5,1.8v13.8c0,0.9,0.6,1.7,1.5,1.8L37.3,95l0.1,0.3c0.6,2.7,1.5,5.3,2.6,7.8c0.3,0.7,1,1.1,1.7,1.1 c0.3,0,0.5-0.1,0.7-0.2c0.9-0.4,1.4-1.5,1-2.5c-1.2-2.7-2.1-5.6-2.7-8.5c-0.2-0.7-0.7-1.3-1.5-1.5l-11-2.2V78.6l11-2.2 c0.7-0.1,1.3-0.7,1.5-1.4c1.1-5.5,3.3-10.6,6.3-15.2c0.4-0.6,0.4-1.4,0-2.1l-6.3-9.3l7.6-7.6l9.3,6.3c0.3,0.2,0.7,0.3,1,0.3 c0.4,0,0.7-0.1,1-0.3c4.6-3.1,9.8-5.2,15.2-6.3c0.7-0.2,1.3-0.7,1.5-1.5l2.2-11h10.8l2.2,11c0.1,0.7,0.7,1.3,1.5,1.5 c5.5,1.1,10.6,3.3,15.2,6.3c0.3,0.2,0.7,0.3,1,0.3c0.4,0,0.7-0.1,1-0.3l9.3-6.3l7.6,7.6l-6.3,9.3c-0.4,0.6-0.4,1.4,0,2.1 c3.1,4.6,5.2,9.7,6.3,15.2c0.2,0.7,0.7,1.3,1.5,1.4l11,2.2v10.8l-11,2.2c-0.7,0.1-1.3,0.7-1.5,1.4c-1.1,5.5-3.3,10.6-6.3,15.2 c-0.4,0.6-0.4,1.4,0,2.1l6.3,9.3l-7.6,7.6l-9.3-6.3c-0.3-0.2-0.7-0.3-1-0.3c-0.4,0-0.7,0.1-1,0.3c-4.6,3.1-9.8,5.2-15.2,6.3 c-0.7,0.2-1.3,0.7-1.5,1.5l-2.2,11H78.6l-2.2-11c-0.1-0.7-0.7-1.3-1.4-1.5c-2.9-0.6-5.8-1.5-8.5-2.7c-0.2-0.1-0.5-0.2-0.7-0.2 c-0.7,0-1.4,0.4-1.7,1.1c-0.2,0.5-0.2,1,0,1.4c0.2,0.5,0.5,0.8,1,1c2.5,1.1,5.1,1.9,7.7,2.6l0.3,0.1l2.3,11.3 c0.2,0.9,0.9,1.5,1.8,1.5h13.8c0.9,0,1.7-0.6,1.8-1.5l2.3-11.3l0.3-0.1c4.9-1.2,9.5-3.1,13.7-5.7l0.2-0.1l9.6,6.4 c0.3,0.2,0.7,0.3,1,0.3c0.5,0,1-0.2,1.3-0.5l9.8-9.8c0.6-0.6,0.7-1.6,0.2-2.4l-6.4-9.6l0.1-0.2c2.6-4.2,4.5-8.9,5.7-13.8l0.1-0.3 l11.3-2.3c0.9-0.2,1.5-0.9,1.5-1.8V77.1C143.6,76.2,142.9,75.4,142.1,75.2z"></path> <path d="M81.4,101.7c2.2,0.6,4.5,0.9,6.8,0.9c5,0,8.4-1.4,8.6-1.4c0.2-0.1,0.4-0.2,0.6-0.3c12-10.8,9.1-25.5,8.9-26.2 c-0.1-0.7-0.6-1.2-1.3-1.4c-0.2-0.1-0.4-0.1-0.5-0.1c-0.5,0-1,0.2-1.3,0.5L91.4,85.4l-0.2,0c-1.3-0.2-3.7-0.9-5.7-2.9 c-2-2-2.7-4.4-2.9-5.7l0-0.2l11.7-11.7c0.5-0.5,0.7-1.2,0.5-1.9c-0.2-0.7-0.7-1.2-1.4-1.3c0,0-1.9-0.4-4.7-0.4 c-4.9,0-14.2,1.2-21.5,9.3c-0.1,0.2-0.3,0.3-0.3,0.5c-0.1,0.3-2.8,7.1-0.5,15.4l0.1,0.2l-38.9,38.9c-1.9,1.9-3,4.6-3,7.4 c0,5.7,4.7,10.4,10.4,10.4c2.8,0,5.4-1.1,7.4-3l38.9-38.9L81.4,101.7z M79.3,98.2l-39.7,39.7c-1.2,1.3-2.9,1.9-4.7,1.9 c-3.7,0-6.7-3-6.7-6.7c0-1.8,0.7-3.5,1.9-4.7l39.7-39.7c0.5-0.5,0.7-1.2,0.4-1.9c-2.2-6.5-0.6-12.2-0.1-13.8l0-0.1l0.1-0.1 c5.7-6.1,12.6-7.6,17.4-7.7l1.1,0l-9.5,9.5c-0.4,0.4-0.5,0.8-0.5,1.3c0,0.2,0,5.3,4.1,9.3c4,4,9,4.1,9.3,4.1c0.5,0,1-0.2,1.3-0.5 l9.5-9.5l0,1.1c-0.2,4.8-1.7,11.7-7.7,17.4l-0.1,0.1l-0.1,0c-0.9,0.3-3.5,1-6.8,1c-2.4,0-4.8-0.4-7-1.1c-0.2-0.1-0.4-0.1-0.6-0.1 C80.1,97.6,79.6,97.8,79.3,98.2z"></path> </g> </svg> 