<?xml version="1.0" encoding="UTF-8"?> <!-- Generator: Adobe Illustrator 24.0.3, SVG Export Plug-In . SVG Version: 6.00 Build 0) --> <svg xmlns="http://www.w3.org/2000/svg" xmlns:xlink="http://www.w3.org/1999/xlink" id="Layer_1" x="0px" y="0px" viewBox="0 0 20 20" style="enable-background:new 0 0 20 20;" xml:space="preserve"> <style type="text/css"> .st0{fill:#FFFFFF;} </style> <g> <path class="st0" d="M10.4,15.1c-0.1-0.1-0.1-0.2-0.1-0.3v-1.8h-5c-0.1,0-0.2,0-0.3-0.1s-0.1-0.2-0.1-0.3V11c0-0.2,0.1-0.3,0.2-0.5 l4.6-6.3C9.9,4.1,10.1,4,10.4,4h2.4c0.1,0,0.2,0,0.3,0.1s0.1,0.2,0.1,0.3v6.2h1.4c0.1,0,0.2,0,0.3,0.1C15,10.8,15,10.9,15,11v1.7 c0,0.1,0,0.2-0.1,0.3s-0.2,0.1-0.3,0.1h-1.4v1.8c0,0.1,0,0.2-0.1,0.3c-0.1,0.1-0.2,0.1-0.3,0.1h-2.1C10.6,15.2,10.5,15.2,10.4,15.1 z M7.8,10.7h2.6V7.1L7.8,10.7z"></path> </g> </svg> 