<?xml version="1.0" encoding="UTF-8"?> <!-- Generator: Adobe Illustrator 24.0.3, SVG Export Plug-In . SVG Version: 6.00 Build 0) --> <svg xmlns="http://www.w3.org/2000/svg" xmlns:xlink="http://www.w3.org/1999/xlink" id="Layer_1" x="0px" y="0px" viewBox="0 0 20 20" style="enable-background:new 0 0 20 20;" xml:space="preserve"> <style type="text/css"> .st0{fill:#FFFFFF;} </style> <g> <path class="st0" d="M7.6,14.9c-0.7-0.3-1.3-0.8-1.7-1.4c-0.4-0.6-0.6-1.3-0.6-2.1c0-0.9,0.5-2,1.4-3.3l2.8-3.7C9.6,4.1,9.8,4,10,4 h2.2c0.1,0,0.2,0,0.2,0.1s0.1,0.2,0.1,0.2c0,0.1,0,0.1-0.1,0.2l-2.1,2.9c0.1,0,0.3,0,0.4,0c0.7,0,1.3,0.2,1.9,0.5 c0.6,0.3,1.1,0.8,1.5,1.4s0.6,1.2,0.6,2c0,0.7-0.2,1.4-0.6,2.1c-0.4,0.6-0.9,1.1-1.7,1.5c-0.7,0.4-1.5,0.5-2.5,0.5 C9.1,15.4,8.3,15.2,7.6,14.9z M11.3,12.5c0.3-0.3,0.5-0.7,0.5-1.2c0-0.5-0.2-0.9-0.5-1.2s-0.7-0.4-1.2-0.4s-0.9,0.1-1.2,0.4 s-0.5,0.7-0.5,1.2s0.2,0.9,0.5,1.2S9.6,13,10.1,13C10.5,13,10.9,12.8,11.3,12.5z"></path> </g> </svg> 