<?xml version="1.0" encoding="UTF-8"?> <!-- Generator: Adobe Illustrator 24.0.3, SVG Export Plug-In . SVG Version: 6.00 Build 0) --> <svg xmlns="http://www.w3.org/2000/svg" xmlns:xlink="http://www.w3.org/1999/xlink" id="Layer_1" x="0px" y="0px" viewBox="0 0 20 20" style="enable-background:new 0 0 20 20;" xml:space="preserve"> <style type="text/css"> .st0{fill:#FFFFFF;} </style> <g> <path class="st0" d="M9.5,15.1c-0.1-0.1-0.1-0.2-0.1-0.3V7.3L7.2,9C7.1,9,7,9.1,7,9.1C6.8,9.1,6.7,9,6.6,8.9l-1-1.3 c0-0.1-0.1-0.2-0.1-0.2c0-0.1,0.1-0.3,0.2-0.4l3.7-2.9C9.6,4.1,9.7,4,9.8,4h2.1c0.1,0,0.2,0,0.3,0.1s0.1,0.2,0.1,0.3v10.4 c0,0.1,0,0.2-0.1,0.3c-0.1,0.1-0.2,0.1-0.3,0.1H9.7C9.6,15.2,9.5,15.2,9.5,15.1z"></path> </g> </svg> 