<?xml version="1.0" encoding="UTF-8"?> <!-- Generator: Adobe Illustrator 24.0.3, SVG Export Plug-In . SVG Version: 6.00 Build 0) --> <svg xmlns="http://www.w3.org/2000/svg" xmlns:xlink="http://www.w3.org/1999/xlink" id="Layer_1" x="0px" y="0px" viewBox="0 0 200 300" style="enable-background:new 0 0 200 300;" xml:space="preserve"> <style type="text/css"> .st0{fill-rule:evenodd;clip-rule:evenodd;fill:#003578;} .st1{opacity:0.33;fill-rule:evenodd;clip-rule:evenodd;fill:#1D1D1B;enable-background:new ;} .st2{opacity:4.000000e-02;fill-rule:evenodd;clip-rule:evenodd;fill:#FFFFFF;enable-background:new ;} .st3{opacity:0.1;fill-rule:evenodd;clip-rule:evenodd;fill:#1D1D1B;enable-background:new ;} .st4{opacity:8.000000e-02;fill-rule:evenodd;clip-rule:evenodd;fill:#FFFFFF;enable-background:new ;} </style> <path class="st0" d="M174,92.9L174,92.9c-3.9,0-7.8-0.5-11.6-1.6C143,85.6,130,74.6,130.7,51.4h28.2c7,0,12.8-5.8,12.8-12.8V12.8 c0-7-5.8-12.8-12.8-12.8H40.6c-7.2,0-12.8,5.9-12.8,12.8v25.9c0,6.9,5.6,12.8,12.8,12.8h28.2C69.4,74.2,56.8,85.3,38,91 c-4.1,1.2-8.3,1.9-12.5,1.9h0C13.7,92.9,4,102.6,4,114.4v164.3c0,11.7,9.5,21.2,21.2,21.2H174c11.8,0,21.5-9.5,21.5-21.2V114.4 C195.5,102.6,185.7,92.9,174,92.9z"></path> <path class="st1" d="M174,92.9L174,92.9c-3.9,0-7.8-0.5-11.6-1.6C143,85.6,130,74.6,130.7,51.4h28.2c7,0,12.8-5.8,12.8-12.8V12.8 c0-7-5.8-12.8-12.8-12.8H40.6c-7.2,0-12.8,5.9-12.8,12.8v25.9c0,6.9,5.6,12.8,12.8,12.8h28.2c0.6,23.1-12.4,34.2-31.7,39.8 c-3.7,1.1-7.6,1.6-11.5,1.6h0C13.7,92.9,4,102.6,4,114.4v164.3c0,11.7,9.5,21.2,21.2,21.2H174c11.8,0,21.5-9.5,21.5-21.2V114.4 C195.5,102.6,185.7,92.9,174,92.9z"></path> <path class="st2" d="M126.3,0h32.5c6.9,0,12.8,5.9,12.8,12.8v25.9c0,6.9-5.9,12.8-12.8,12.8h-64C95.6,31,113.8,11.3,126.3,0L126.3,0 z"></path> <path class="st2" d="M91.5,92.9H174c11.8,0,21.5,9.7,21.5,21.5v164.3c0,11.7-9.5,21.2-21.2,21.2H62.9 C18.8,209.1,77.4,116.5,91.5,92.9L91.5,92.9z"></path> <path class="st3" d="M62.1,92.9H30.9C53.6,87.8,69.5,77,68.7,51.5c10.2,0,20.7,0,31,0s20.7,0,31,0c0,1.8,0,3.8,0,5.4 C115.6,59.1,80.8,66.8,62.1,92.9L62.1,92.9z"></path> <path class="st4" d="M159.6,11.8c2,0,3.6,6.7,3.6,14.6S161.7,41,159.6,41c-2.3,0-3.8-6.7-3.8-14.6S157.3,11.8,159.6,11.8L159.6,11.8 z"></path> <path class="st4" d="M181.1,110.3c2,0,3.8,6.1,3.8,13.8c0,0.3,0,143.9,0,144.1c0,7.9-1.5,14.6-3.8,14.6c-2,0-3.6-6.7-3.6-14.6 c0-0.5,0-144.1,0-144.4C177.5,116.2,179.3,110.3,181.1,110.3L181.1,110.3z"></path> </svg> 