<?xml version="1.0" encoding="UTF-8"?> <!-- Generator: Adobe Illustrator 24.0.3, SVG Export Plug-In . SVG Version: 6.00 Build 0) --> <svg xmlns="http://www.w3.org/2000/svg" xmlns:xlink="http://www.w3.org/1999/xlink" id="Layer_1" x="0px" y="0px" viewBox="0 0 20 20" style="enable-background:new 0 0 20 20;" xml:space="preserve"> <style type="text/css"> .st0{clip-path:url(#SVGID_2_);fill:#4B2300;} .st1{fill:#F08681;} </style> <g> <g> <defs> <circle id="SVGID_1_" cx="10" cy="10" r="9"></circle> </defs> <use xlink:href="#SVGID_1_" style="overflow:visible;fill:#4B2300;"></use> <clipPath id="SVGID_2_"> <use xlink:href="#SVGID_1_" style="overflow:visible;"></use> </clipPath> <circle class="st0" cx="10" cy="10" r="9"></circle> </g> <g> <path class="st1" d="M5.5,15.1c-0.1-0.1-0.1-0.2-0.1-0.3v-1.2c0-0.3,0.1-0.6,0.4-0.8l1.5-1.5c1-0.8,1.8-1.4,2.3-1.8 c0.5-0.4,0.9-0.8,1.2-1.2s0.4-0.7,0.4-1c0-0.8-0.4-1.2-1.2-1.2c-0.4,0-0.7,0.1-1,0.4C8.8,6.9,8.7,7.2,8.6,7.6 C8.5,7.8,8.3,7.9,8,7.9H5.9c-0.1,0-0.2,0-0.2-0.1C5.6,7.7,5.6,7.7,5.6,7.6c0-0.7,0.2-1.3,0.6-1.9s0.9-1,1.5-1.4 C8.4,4,9.1,3.8,10,3.8c0.9,0,1.7,0.1,2.3,0.4c0.7,0.3,1.1,0.7,1.5,1.2s0.5,1.1,0.5,1.8c0,0.8-0.2,1.5-0.7,2.1 c-0.5,0.6-1.2,1.3-2.2,2l-1.3,1.3h4c0.1,0,0.2,0,0.3,0.1c0.1,0.1,0.1,0.2,0.1,0.3v1.7c0,0.1,0,0.2-0.1,0.3 c-0.1,0.1-0.2,0.1-0.3,0.1H5.8C5.7,15.2,5.6,15.2,5.5,15.1z"></path> </g> </g> </svg> 