<?xml version="1.0" encoding="UTF-8"?> <!-- Generator: Adobe Illustrator 24.0.3, SVG Export Plug-In . SVG Version: 6.00 Build 0) --> <svg xmlns="http://www.w3.org/2000/svg" xmlns:xlink="http://www.w3.org/1999/xlink" id="Layer_1" x="0px" y="0px" viewBox="0 0 154 154" style="enable-background:new 0 0 154 154;" xml:space="preserve"> <style type="text/css"> .st0{fill:none;stroke:#00327B;stroke-width:5.605;stroke-linecap:round;stroke-linejoin:round;stroke-miterlimit:10;} </style> <g> <line class="st0" x1="55" y1="39" x2="55" y2="108"></line> <path class="st0" d="M100,39v69c-0.1,0-0.2,0-0.3,0c-6.5,0-11.8,5.3-11.8,11.8c0,0.2,0,0.3,0,0.5H68.1c0-0.2,0-0.3,0-0.5 c0-6.5-5.3-11.8-11.8-11.8c-0.1,0-0.2,0-0.3,0"></path> <ellipse transform="matrix(0.9918 -0.1276 0.1276 0.9918 -7.7423 10.4895)" class="st0" cx="78" cy="65.7" rx="14.8" ry="14.8"></ellipse> <polyline class="st0" points="109.5,39 109.5,129.7 45.5,129.7 45.5,39 "></polyline> <path class="st0" d="M116.9,54.8h11.8c5.4,0,9.9-4.4,9.9-9.9V33.1c0-5.4-4.4-9.9-9.9-9.9H24.3c-5.4,0-9.9,4.4-9.9,9.9V45 c0,5.4,4.4,9.9,9.9,9.9h13.8"></path> <line class="st0" x1="38.1" y1="39" x2="116.9" y2="39"></line> </g> </svg> 