<?xml version="1.0" encoding="UTF-8"?> <!-- Generator: Adobe Illustrator 24.0.3, SVG Export Plug-In . SVG Version: 6.00 Build 0) --> <svg xmlns="http://www.w3.org/2000/svg" xmlns:xlink="http://www.w3.org/1999/xlink" id="Layer_1" x="0px" y="0px" viewBox="0 0 20 20" style="enable-background:new 0 0 20 20;" xml:space="preserve"> <style type="text/css"> .st0{fill:#FFFFFF;} </style> <g> <path class="st0" d="M7.4,14.5c-0.7-0.3-1.2-0.7-1.6-1.3c-0.3-0.5-0.5-1.1-0.5-1.8c0-0.6,0.1-1.1,0.4-1.5s0.7-0.8,1.1-1 C6,8.3,5.7,7.6,5.7,6.6c0-0.9,0.4-1.7,1.1-2.3C7.5,3.7,8.6,3.4,10,3.4c1.4,0,2.5,0.3,3.2,0.9c0.7,0.6,1.1,1.4,1.1,2.3 c0,1-0.4,1.7-1.1,2.2c0.5,0.2,0.8,0.6,1.1,1c0.3,0.5,0.4,1,0.4,1.6c0,0.7-0.2,1.3-0.5,1.8c-0.4,0.5-0.9,0.9-1.6,1.3 c-0.7,0.3-1.6,0.5-2.6,0.5S8.1,14.8,7.4,14.5z M11.2,12.4c0.3-0.3,0.5-0.6,0.5-1c0-0.4-0.2-0.8-0.5-1C10.9,10.1,10.5,10,10,10 s-0.9,0.1-1.2,0.4s-0.5,0.6-0.5,1c0,0.4,0.2,0.8,0.5,1s0.7,0.4,1.2,0.4S10.9,12.7,11.2,12.4z M11.1,7.6c0.3-0.2,0.4-0.5,0.4-0.9 c0-0.4-0.1-0.7-0.4-0.9S10.4,5.5,10,5.5c-0.5,0-0.8,0.1-1.1,0.3C8.6,6.1,8.5,6.4,8.5,6.8s0.1,0.7,0.4,0.9C9.2,7.9,9.5,8,10,8 C10.4,8,10.8,7.9,11.1,7.6z"></path> </g> </svg> 