<?xml version="1.0" encoding="UTF-8"?> <!-- Generator: Adobe Illustrator 24.0.3, SVG Export Plug-In . SVG Version: 6.00 Build 0) --> <svg xmlns="http://www.w3.org/2000/svg" xmlns:xlink="http://www.w3.org/1999/xlink" x="0px" y="0px" viewBox="0 0 141.7 141.7" style="enable-background:new 0 0 141.7 141.7;" xml:space="preserve"> <style type="text/css"> .st0{fill:#FFAE00;} </style> <g id="bkg"> </g> <g id="Layer_1"> <g> <path class="st0" d="M92.5,61.7c-9.3,0-25.7,2.5-25.7,5c0,2.4,15.4,4.3,25.7,4.3c9.3,0,25.7-1.8,25.7-4.3 C118.3,64.3,102.8,61.7,92.5,61.7z"></path> <path class="st0" d="M0,0v141.7h141.7V0H0z M14.8,30.3c0-5.4,14.2-9.8,31.8-9.8c17.5,0,31.8,4.4,31.8,9.8v10.9 c0,5.4-14.2,9.8-31.8,9.8c-17.5,0-31.8-4.4-31.8-9.8V30.3z M14.8,52.3c1.9,1.1,4.2,2.1,7.1,3c6.7,2.1,15.5,3.2,24.7,3.2 c2.7,0,5.3-0.1,7.9-0.3c-2.9,2.9-3.8,6-3.8,8.5v4c0,0.9,0.1,1.9,0.4,2.9c-1.5,0.1-3,0.1-4.5,0.1c-17.5,0-31.8-4.4-31.8-9.8V52.3z M46.6,97.1c-17.5,0-31.8-4.4-31.8-9.8V75c1.9,1.1,4.2,2.1,7.1,3c6.7,2.1,15.5,3.2,24.7,3.2c3.3,0,6.6-0.2,9.7-0.4 c0.7,0.5,1.5,1.1,2.4,1.6c2.1,3.9,5.5,7.9,9.7,12.1C62.7,96.1,55.1,97.1,46.6,97.1z M126.9,70.7c0,2.3-2.3,4.4-6.2,6.1 c-2.5,6.8-12.9,15.9-21.5,23.3l-0.5,18.4c0,1.5-2.8,2.8-6.2,2.8c-3.4,0-6.2-1.2-6.2-2.8l-0.5-18.4c-8.6-7.5-19-16.6-21.5-23.3 c-3.9-1.7-6.2-3.8-6.2-6.1v-4c0-5.9,15.4-10.6,34.4-10.6c19,0,34.4,4.8,34.4,10.6V70.7z"></path> </g> </g> </svg> 