<?xml version="1.0" encoding="UTF-8"?> <!-- Generator: Adobe Illustrator 24.0.3, SVG Export Plug-In . SVG Version: 6.00 Build 0) --> <svg xmlns="http://www.w3.org/2000/svg" xmlns:xlink="http://www.w3.org/1999/xlink" id="Layer_1" x="0px" y="0px" viewBox="0 0 168 168" style="enable-background:new 0 0 168 168;" xml:space="preserve"> <g> <path d="M118,127.5c-5.1,5.1-13.4,5.1-18.5,0c-0.7-0.7-1.9-0.7-2.6,0c-0.7,0.7-0.7,1.9,0,2.6c3.3,3.3,7.6,4.9,11.9,4.9 c4.3,0,8.6-1.6,11.9-4.9c0.7-0.7,0.7-1.9,0-2.6C120,126.8,118.8,126.8,118,127.5z"></path> <path d="M136.5,71.8c-0.1,0-0.2,0-0.3,0l-0.3-2.1c0.6-0.3,1.1-0.6,1.6-1.1c1.7-1.4,2.7-3.4,2.9-5.6c0.2-2.2-0.5-4.3-1.9-6l-2.7-3.3 c-2.9-3.5-8.2-4-11.7-1c-0.2,0.2-0.4,0.3-0.5,0.5l-1.6-0.9c0.2-0.8,0.4-1.6,0.4-2.4c0-4.6-3.7-8.3-8.3-8.3h-4.3 c-3.9,0-7.2,2.7-8.1,6.4H101V30.7c0-0.4-0.1-0.8-0.4-1.2c-0.3-0.4-3.4-4-14.1-5c-5.3-0.5-12,0.5-19.7,1.7 c-7.7,1.2-16.4,2.5-25.3,2.6C32.2,28.9,27.8,25,27.8,25c-0.5-0.5-1.3-0.6-2-0.3c-0.7,0.3-1.1,1-1.1,1.7v38.5c0,0.5,0.2,1,0.6,1.4 c0.2,0.2,5.4,4.8,16,4.8c0.1,0,0.1,0,0.2,0c9.2-0.1,18.1-1.4,25.9-2.6c7.5-1.1,14-2.1,18.8-1.7c8.6,0.8,11.3,3.3,11.5,3.6 c0.3,0.5,0.9,0.7,1.4,0.7c0.2,0,0.4,0,0.6-0.1c0.8-0.2,1.3-1,1.3-1.8V51.8h0.8c0.8,3.7,4.1,6.4,8.1,6.4h4.3c2.4,0,4.5-1,6.1-2.7 l1.5,0.9c-0.9,2.7-0.5,5.7,1.5,8l2.7,3.3c0,0,0,0,0,0c1.6,1.9,4,3,6.3,3c0,0,0,0,0,0l0.2,1.5c-0.8,0.3-1.5,0.6-2.2,1.1 c-1.8,1.3-3,3.2-3.4,5.3l-0.7,4.2c-0.4,2.2,0.1,4.4,1.4,6.2c0.6,0.9,1.3,1.6,2.2,2.1l-0.4,1.1c-0.8-0.2-1.6-0.4-2.4-0.4 c-2.2,0-4.3,0.9-5.9,2.4c-0.4,0.4-0.7,0.8-1,1.3c-9.5-4.7-21.3-3.1-29.2,4.8c-9.9,9.9-9.9,26,0,35.9c4.9,4.9,11.4,7.4,17.9,7.4 c6.5,0,13-2.5,17.9-7.4c7.9-7.9,9.5-19.7,4.8-29.2c0.4-0.3,0.9-0.6,1.3-1c3.2-3.2,3.2-8.5,0-11.7c0,0-0.1-0.1-0.1-0.1l0.6-1.8 c0.4,0.1,0.7,0.1,1.1,0.1c1.7,0,3.3-0.5,4.7-1.5c1.8-1.3,3-3.2,3.4-5.3l0.7-4.2C144,76.9,141,72.6,136.5,71.8z M97.3,65.6 c-2.2-1-5.6-2.1-10.8-2.6c-5.3-0.5-12,0.5-19.7,1.7c-7.7,1.2-16.4,2.5-25.3,2.6c-0.1,0-0.1,0-0.2,0c-7.2,0-11.4-2.3-12.9-3.3V29.8 c2.6,1.3,7,2.8,13.1,2.8c9.2-0.1,18.1-1.4,25.9-2.6c7.5-1.1,14-2.1,18.8-1.7c7,0.7,10.1,2.5,11.1,3.2V65.6z M114.1,54.4h-4.3 c-1.8,0-3.4-1.1-4.1-2.7h2c1,0,1.9-0.8,1.9-1.9s-0.8-1.9-1.9-1.9h-2c0.7-1.6,2.3-2.7,4.1-2.7h4.3c2.5,0,4.5,2,4.5,4.5 c0,0.1,0,0.3,0,0.4l-3.6-2.1c-0.9-0.5-2-0.2-2.5,0.7c-0.5,0.9-0.2,2,0.7,2.5l3.6,2.1C116,54.1,115.1,54.4,114.1,54.4z M128.7,65.2 L128.7,65.2L126,62c-0.9-1.1-1.2-2.4-1-3.7l3.1,1.8c0.3,0.2,0.6,0.2,0.9,0.2c0.6,0,1.3-0.3,1.6-0.9c0.5-0.9,0.2-2-0.7-2.5l-2.9-1.6 c1.9-1.1,4.4-0.8,5.8,1l2.7,3.3c1.6,1.9,1.4,4.6-0.4,6.2l-0.1-1c-0.1-1-1.1-1.7-2.1-1.6c-1,0.1-1.7,1.1-1.6,2.1l0.2,1.7 C130.6,66.7,129.5,66.2,128.7,65.2z M124.1,133.5c-4.2,4.2-9.8,6.3-15.3,6.3c-5.5,0-11.1-2.1-15.3-6.3c-8.4-8.4-8.4-22.2,0-30.6 c4.2-4.2,9.8-6.3,15.3-6.3c3.8,0,7.5,1,10.9,2.9c0.1,0.1,0.3,0.2,0.5,0.3c1.4,0.9,2.7,1.9,4,3.1c1.2,1.2,2.2,2.5,3.1,3.9 c0.1,0.2,0.2,0.3,0.3,0.5C132.3,115.6,131.2,126.5,124.1,133.5z M130.1,103.3c-0.2,0.2-0.3,0.3-0.5,0.4c-0.8-1.2-1.8-2.4-2.9-3.5 c-1.1-1.1-2.2-2-3.5-2.9c0.1-0.2,0.3-0.4,0.4-0.5c0.9-0.9,2-1.3,3.2-1.3c0.4,0,0.9,0.1,1.3,0.2l-0.9,2.7c-0.3,1,0.2,2,1.2,2.4 c0.2,0.1,0.4,0.1,0.6,0.1c0.8,0,1.5-0.5,1.8-1.3l0.4-1.1C131.8,100.2,131.4,102,130.1,103.3z M139.5,80.8l-0.7,4.2 c-0.2,1.2-0.9,2.2-1.9,2.9c-0.7,0.5-1.6,0.8-2.5,0.8l0.6-1.9c0.3-1-0.2-2-1.2-2.4c-1-0.3-2,0.2-2.4,1.2l-0.6,1.7 c-0.1-0.2-0.3-0.3-0.4-0.5c-0.7-1-1-2.2-0.8-3.4v0l0.7-4.2c0.2-1.2,0.9-2.2,1.9-2.9c0.2-0.1,0.4-0.2,0.6-0.3l0.6,4.1 c0.1,0.9,0.9,1.6,1.8,1.6c0.1,0,0.2,0,0.3,0c1-0.1,1.7-1.1,1.6-2.1l-0.5-3.8C138.7,76.5,139.9,78.6,139.5,80.8z"></path> <path d="M90.6,39.5L90.6,39.5c-2.5,0-4.5-2-4.5-4.4v-0.2c0-0.5-0.2-0.9-0.5-1.2c0,0-0.1-0.1-0.1-0.1c-0.3-0.4-0.8-0.6-1.3-0.6 c-4.2-0.1-9.7,0.7-16.1,1.7c-7.9,1.2-16.9,2.6-26.6,2.6c-1,0-1.9,0.8-1.9,1.9v0.1c0,2.5-2,4.4-4.4,4.4h-0.1c-1,0-1.9,0.8-1.9,1.9 v8.5c0,1,0.8,1.9,1.9,1.9l0.1,0c2.4,0,4.4,2,4.4,4.4v0.2c0,0.5,0.2,1,0.6,1.3c0.3,0.3,0.8,0.5,1.3,0.5c0,0,0,0,0,0 c8.6-0.1,17.1-1.4,24.6-2.5c6.4-1,12.4-1.9,17.5-1.9c0.1,0,0.2,0,0.2,0c0.1,0,0.3,0,0.4,0c0.5,0,1-0.2,1.3-0.5 c0.4-0.4,0.6-0.8,0.6-1.3c0-2.5,2-4.4,4.4-4.4h0.1c1,0,1.9-0.8,1.9-1.9v-8.5C92.5,40.3,91.6,39.5,90.6,39.5z M61,54.4 c-1.7,0-3.1-0.6-4-1.7c-1-1.2-1.3-2.8-0.9-4.5c0.8-3.8,4.7-7.1,8.5-7.1c1.7,0,3.1,0.6,4,1.7c1,1.2,1.3,2.8,0.9,4.5 C68.7,51.1,64.8,54.4,61,54.4z M36.9,52.4v-5.1c3.1-0.7,5.5-3.1,6.2-6.2c4.9-0.1,9.6-0.5,14-1c-2.3,1.8-4,4.4-4.7,7.3 c-0.6,2.9,0,5.6,1.6,7.7c0.9,1.1,2,1.9,3.3,2.5c-4.6,0.6-9.4,1.1-14.3,1.2C42.5,55.6,40,53.1,36.9,52.4z M88.7,48.2 c-3.1,0.7-5.5,3.1-6.2,6.1c-4.5,0.1-9.4,0.8-14.7,1.6c2.6-1.8,4.7-4.6,5.3-7.8c0.6-2.9,0-5.6-1.6-7.7c-0.7-0.9-1.6-1.6-2.5-2.1 c5.2-0.8,9.9-1.5,13.5-1.6c0.7,3.1,3.1,5.6,6.2,6.3V48.2z"></path> </g> </svg> 