<?xml version="1.0" encoding="UTF-8"?> <!-- Generator: Adobe Illustrator 22.1.0, SVG Export Plug-In . SVG Version: 6.00 Build 0) --> <svg xmlns="http://www.w3.org/2000/svg" xmlns:xlink="http://www.w3.org/1999/xlink" x="0px" y="0px" viewBox="0 0 200 200" style="enable-background:new 0 0 200 200;" xml:space="preserve"> <style type="text/css"> .st0{fill:#FFAE00;} </style> <g id="bkg"> </g> <g id="Layer_1"> <g> <path class="st0" d="M150.8,76c-2.1-3.6-6.3-7-12.5-9.9c-6.2-2.8-13.7-4.7-21.6-5.7l-12.5,21.3l40.7-5v31.7l-5.3,0.9v5.9l8.7-1.5 c1.4-0.2,2.4-1.5,2.4-2.9V76z"></path> <path class="st0" d="M49.3,88.1C49.3,88.1,49.2,88.3,49.3,88.1C49.3,88.2,49.3,88.2,49.3,88.1C49.3,88.1,49.3,88.1,49.3,88.1 C49.3,88.1,49.3,88.1,49.3,88.1z M139.7,88.6c0-1.9-0.5-4.1-1.7-6L94.4,88L106,68.2c-15-1.8-31.7,0-43.5,5.4 c-8.5,3.9-12.9,9.5-13.2,14.6l-0.1,31c0,11.3,20.3,20.5,45.3,20.5c25,0,45.3-9.2,45.3-20.5L139.7,88.6z M132.9,119.1 c0,4.6-13.6,13.7-38.5,13.7s-38.5-9-38.5-13.7v-16.6c9.4,5.3,23,8.5,38.5,8.5s29-3.2,38.5-8.5V119.1z"></path> </g> </g> </svg> 