<?xml version="1.0" encoding="UTF-8"?> <!-- Generator: Adobe Illustrator 24.0.3, SVG Export Plug-In . SVG Version: 6.00 Build 0) --> <svg xmlns="http://www.w3.org/2000/svg" xmlns:xlink="http://www.w3.org/1999/xlink" x="0px" y="0px" viewBox="0 0 141.7 141.7" style="enable-background:new 0 0 141.7 141.7;" xml:space="preserve"> <style type="text/css"> .st0{fill:#FFAE00;} </style> <g id="bkg"> </g> <g id="Layer_1"> <g> <path class="st0" d="M104.6,36.4c-2.6-2.5-5.7-4.2-8.9-5.3c-2.5-0.8-5.1-1.2-7.7-1.2c-6.6,0-13.1,2.6-17.9,7.8 c-4.7,5-6.8,11.5-6.5,17.9c0.3,6.1,2.9,12.1,7.8,16.6c2.6,2.5,5.7,4.2,8.9,5.3c2.5,0.8,5.1,1.2,7.7,1.2c6.6,0,13.1-2.6,17.9-7.8 c4.7-5,6.8-11.5,6.5-17.9C112.1,46.9,109.4,40.9,104.6,36.4z M107.2,59.5c-2.8,0-6.7,0-8.5,0l-7.1,14L84.4,55l-1.6,4.5h-14 c-0.4-1.4-0.6-2.8-0.7-4.2c0-0.9,0-1.7,0-2.6c5.3,0,9.4,0,9.9,0l5.9-17.7l8.5,21.9l2.2-4.1l13.2,0c0,0.2,0,0.3,0,0.5 C108,55.4,107.8,57.5,107.2,59.5z"></path> <path class="st0" d="M0,0v141.7h141.7V0H0z M19,52.8h4.2l5.9-13.7l8.5,17.8l2.2-4.1c0,0,3.8,0,9,0c0,1.2,0,2.4,0,3.6 c0.1,1.1,0.2,2.1,0.3,3.2h-5.3l-7.1,9.5l-7.1-14L28,59.5h-9V52.8z M113.5,77.9C106.6,85.3,97.3,89,88,89c-3.7,0-7.4-0.6-10.9-1.8 c-0.9-0.3-1.8-0.6-2.6-1l-4.6,4.9l-4.6-1.7l-21.9,28.7c-2.1,2.8-4.7,3.9-7.3,3.9c-8.3,0-16.5-11.4-8.5-18.5l27-24l-2.1-4.4 l4.6-4.9c-2.3-4.4-3.6-9.2-3.8-14.1c-0.5-9,2.6-18.3,9.2-25.4c6.8-7.4,16.1-11.1,25.4-11.1c3.7,0,7.4,0.6,10.9,1.8 c4.6,1.5,8.9,4,12.7,7.5c6.9,6.4,10.6,14.9,11.1,23.6C123.1,61.5,120.1,70.7,113.5,77.9z"></path> </g> </g> </svg> 