<?xml version="1.0" encoding="UTF-8"?> <!-- Generator: Adobe Illustrator 24.0.3, SVG Export Plug-In . SVG Version: 6.00 Build 0) --> <svg xmlns="http://www.w3.org/2000/svg" xmlns:xlink="http://www.w3.org/1999/xlink" id="Layer_1" x="0px" y="0px" viewBox="0 0 20 20" style="enable-background:new 0 0 20 20;" xml:space="preserve"> <style type="text/css"> .st0{clip-path:url(#SVGID_2_);fill:#FFAE00;} .st1{fill:#FFF8B9;} .st2{clip-path:url(#SVGID_4_);fill:#FFAE00;} </style> <g> <g> <defs> <circle id="SVGID_1_" cx="207.4" cy="701.3" r="9"></circle> </defs> <use xlink:href="#SVGID_1_" style="overflow:visible;fill:#FFAE00;"></use> <clipPath id="SVGID_2_"> <use xlink:href="#SVGID_1_" style="overflow:visible;"></use> </clipPath> <circle class="st0" cx="207.4" cy="701.3" r="9"></circle> </g> <g> <path class="st1" d="M204.7,706.2c-0.7-0.3-1.2-0.7-1.6-1.2c-0.3-0.5-0.5-1-0.5-1.4c0-0.1,0-0.2,0.1-0.2c0.1-0.1,0.2-0.1,0.2-0.1 h2.2c0.1,0,0.2,0,0.3,0.1s0.1,0.1,0.2,0.2c0.2,0.5,0.8,0.8,1.7,0.8c0.5,0,0.9-0.1,1.2-0.4s0.4-0.6,0.4-1c0-0.8-0.5-1.2-1.6-1.2 h-1.8c-0.1,0-0.2,0-0.3-0.1s-0.1-0.2-0.1-0.3v-0.9c0-0.2,0.1-0.4,0.3-0.5l2.6-2.1h-4.4c-0.1,0-0.2,0-0.3-0.1 c-0.1-0.1-0.1-0.2-0.1-0.3v-1.6c0-0.1,0-0.2,0.1-0.3s0.2-0.1,0.3-0.1h7.5c0.1,0,0.2,0,0.3,0.1c0.1,0.1,0.1,0.2,0.1,0.3v1.4 c0,0.2-0.1,0.4-0.3,0.5l-2.4,2.2l0.1,0c1,0.1,1.7,0.5,2.3,1c0.6,0.5,0.8,1.3,0.8,2.3c0,0.7-0.2,1.3-0.6,1.9c-0.4,0.5-1,1-1.7,1.2 c-0.7,0.3-1.5,0.4-2.5,0.4C206.3,706.7,205.4,706.5,204.7,706.2z"></path> </g> </g> <g> <g> <defs> <circle id="SVGID_3_" cx="10" cy="10" r="9"></circle> </defs> <use xlink:href="#SVGID_3_" style="overflow:visible;fill:#FFAE00;"></use> <clipPath id="SVGID_4_"> <use xlink:href="#SVGID_3_" style="overflow:visible;"></use> </clipPath> <circle class="st2" cx="10" cy="10" r="9"></circle> </g> <g> <path class="st1" d="M7.3,14.9c-0.7-0.3-1.2-0.7-1.6-1.2c-0.3-0.5-0.5-1-0.5-1.4c0-0.1,0-0.2,0.1-0.2c0.1-0.1,0.2-0.1,0.2-0.1h2.2 c0.1,0,0.2,0,0.3,0.1c0.1,0,0.1,0.1,0.2,0.2C8.5,12.7,9,13,9.9,13c0.5,0,0.9-0.1,1.2-0.4s0.4-0.6,0.4-1c0-0.8-0.5-1.2-1.6-1.2H8.2 c-0.1,0-0.2,0-0.3-0.1S7.8,10.1,7.8,10V9.1c0-0.2,0.1-0.4,0.3-0.5l2.6-2.1H6.2c-0.1,0-0.2,0-0.3-0.1C5.8,6.2,5.8,6.1,5.8,6V4.4 c0-0.1,0-0.2,0.1-0.3S6.1,4,6.2,4h7.5c0.1,0,0.2,0,0.3,0.1c0.1,0.1,0.1,0.2,0.1,0.3v1.4c0,0.2-0.1,0.4-0.3,0.5l-2.4,2.2l0.1,0 c1,0.1,1.7,0.5,2.3,1c0.6,0.5,0.8,1.3,0.8,2.3c0,0.7-0.2,1.3-0.6,1.9c-0.4,0.5-1,1-1.7,1.2c-0.7,0.3-1.5,0.4-2.5,0.4 C8.9,15.4,8,15.2,7.3,14.9z"></path> </g> </g> </svg> 