<?xml version="1.0" encoding="UTF-8"?> <!-- Generator: Adobe Illustrator 24.0.3, SVG Export Plug-In . SVG Version: 6.00 Build 0) --> <svg xmlns="http://www.w3.org/2000/svg" xmlns:xlink="http://www.w3.org/1999/xlink" id="Layer_1" x="0px" y="0px" viewBox="0 0 168 168" style="enable-background:new 0 0 168 168;" xml:space="preserve"> <g> <path d="M101.2,77.2c0.1,0,2.1-1.9,2.5-3.3c0.3-1.2,0.2-2.6-0.3-3.7c0.7-0.7,1.4-1.8,1.4-3c0.1-3.9-2.2-5.3-2.3-5.3 c0.2-0.6,0.3-1.2,0.2-1.9c-0.1-2.3-1.8-4-4.5-4.6c5.3-1.7,4.8-7.7-0.4-9.3l4.9-7.9c0.8-1.2-0.1-2.9-1.6-2.9H66.9 c-1.4,0-2.3,1.5-1.6,2.8l4.8,8.7c-0.2,0.1-0.5,0.2-0.7,0.4c-5.3,3.1-9.2,9.3-10.5,12.9h-1.8c-1,0-1.8,0.9-1.8,2 c0,1,0.9,1.8,1.9,1.7h3.1c0.9,0,1.5-0.7,1.8-1.7c0.3-1.2,3.2-8.1,9.2-11.6c1.9-1.1,6-1.3,9.6-1.4c0,0,8.4,0.1,14,0.3 c0.7,0,3,1,3.3,2.4c-0.2,0.2-20.7,0-20.7,0c-0.5,0-1,0.2-1.4,0.5c-0.4,0.4-0.5,2-0.5,2c0.1,5-3.3,8.9-4.5,9.4 c-1,0.4-1.4,1.4-1.1,2.4c0.3,0.7,1,1.2,1.7,1.2c0.2,0,1-0.3,1.2-0.4v2.4c0,1.9-0.9,3.7-2.5,5c-1.6,1.3-3.2,2.9-4.6,4.7 c-2.3-0.6-4.4-1.3-5-1.6c-0.6-0.3-1.2-0.4-1.8-0.4h-2.4c-1,0-1.9,0.8-1.9,1.9c0,1,0.8,1.9,1.9,1.9h2.4c0,0,2.5,0.9,4.5,1.5 c-4.9,7.7-7.1,18.3-8.7,29.9c-2.6,19.1,19.5,20.6,29.2,20.6c12.3,0,29.2,0,29.2-20.5C113.3,98.1,108.7,85.2,101.2,77.2z M94.1,45.5 c-5.2-0.2-13.3-0.3-13.3-0.3c-2.4,0.1-4.8,0.2-7,0.5L70.1,39h27.7C97.8,39,94,45.2,94.1,45.5z M88.7,58.8h6.9 c2.5,0,3.3,0.3,3.3,1.4c0.1,0.9-0.8,1.3-1.3,1.3c-0.1,0-10.7,0-11,0c-1.1-0.2-1.5-0.7-1.5-0.8C85.2,59.5,85.1,58.7,88.7,58.8z M100,64.5c1.4,0.9,1.1,2.7,0.6,3c-0.1,0-16.7,0.1-16.7,0.1c-0.3-0.5-0.3-2.8,0.1-3C84,64.5,100,64.6,100,64.5z M88.3,73.8 c-0.3-0.6-0.2-1.7,0.1-2.1h11.4c0,0,0,0,0,0c0.2,0.7,0.3,1.8-0.3,2.1C99.6,73.8,88.5,73.8,88.3,73.8z M96.4,79.2 c-1.1,0-6.8,0-6.8,0c-0.1,0-0.4-0.3-0.4-0.8c0-0.8,0.6-0.9,1.4-0.9c1.1,0,4.4,0,5.5,0.1C97.2,77.7,97.5,79.2,96.4,79.2z M84.1,129 c-8.9,0-27-1.8-25.5-16.6c1.2-11.5,3.8-21.9,8.8-29.1c1.5-2.3,3.3-4.3,5.5-6.1c2.4-2,3.8-4.9,3.8-7.8c0,0,0-5.9,0-6.1 c1.4-2.1,2.5-4.8,2.7-7.7h4.9c-1.8,0.7-2.7,2.2-2.7,5.2c0,0.5,0.1,1.2,0.5,1.9c-0.2,0.2-0.4,0.3-0.6,0.5c-1.5,1.6-1.8,4.3-0.7,6.3 c0.9,1.6,2.7,2.1,4,2.2c-0.3,1.2-0.2,2.5,0.3,3.6c0.2,0.5,0.5,0.9,0.9,1.2c-0.2,0.6-0.4,1.2-0.4,1.9c0,2.5,1.8,4.5,4.1,4.5h6.8 c0,0,0.1,0,0.1,0c0.6,0,2.2-0.2,3.4-1.6c6.1,7.4,9.7,18.7,9.7,30.9C109.6,127.8,99,129,84.1,129z"></path> <polygon points="74.5,105.2 83.7,105.2 83.7,118.5 87.4,118.5 87.4,105.2 96.6,105.2 96.6,101.4 74.5,101.4 "></polygon> <rect x="74.5" y="94.6" width="22.1" height="3.7"></rect> </g> </svg> 