<?xml version="1.0" encoding="UTF-8"?> <!-- Generator: Adobe Illustrator 24.0.3, SVG Export Plug-In . SVG Version: 6.00 Build 0) --> <svg xmlns="http://www.w3.org/2000/svg" xmlns:xlink="http://www.w3.org/1999/xlink" id="Layer_1" x="0px" y="0px" viewBox="0 0 1160 300" style="enable-background:new 0 0 1160 300;" xml:space="preserve"> <style type="text/css"> .st0{fill:#FFFFFF;} .st1{fill:#FFFFFF;stroke:#FFFFFF;stroke-width:10;stroke-linecap:round;stroke-miterlimit:10;} .st2{opacity:0.5;} .st3{opacity:0.6;fill:#FFFFFF;} </style> <path class="st0" d="M510.5,158.6v-16.3c0-10,2.1-19.7,6-28.6H242.7V74.4h93.6c34.3,0,63.1-23.2,71.8-54.7H47.9 c8.6,31.5,37.5,54.7,71.8,54.7h93.6v39.2h-0.4c-7.1,0-12.8,5.7-12.8,12.8c0,3.4,1.3,6.5,3.5,8.7c2.1,2.3,5.1,3.8,8.5,4l3.5,0.2 c2.6,4.2,7.2,6.9,12.5,6.9c4.6,0,8.7-2.1,11.4-5.4L510.5,158.6z M235.7,126.8c0,4.3-3.5,7.7-7.7,7.7c-4.3,0-7.7-3.5-7.7-7.7 c0-4.3,3.5-7.7,7.7-7.7C232.3,119,235.7,122.5,235.7,126.8z"></path> <path class="st0" d="M823.7,74.4h93.6v39.2H643.4c4,8.9,6.1,18.7,6.1,28.7v16.2l271.1-17.7c2.7,3.3,6.8,5.4,11.4,5.4 c5.3,0,9.9-2.8,12.5-6.9l3.5-0.2c6.7-0.4,11.9-6,11.9-12.8c0-3.5-1.4-6.7-3.7-9c-2.3-2.3-5.5-3.7-9-3.7h-0.4V74.4h93.6 c34.3,0,63.1-23.2,71.8-54.7H751.9C760.5,51.2,789.4,74.4,823.7,74.4z M939.8,126.8c0,4.3-3.5,7.7-7.7,7.7c-4.3,0-7.7-3.5-7.7-7.7 c0-4.3,3.5-7.7,7.7-7.7C936.3,119,939.8,122.5,939.8,126.8z"></path> <path class="st0" d="M704.5,276.1h-249l-1.6,1.1c-4,11.1,4.3,22.8,16.1,22.8H690c11.8,0,20.1-11.7,16.1-22.8L704.5,276.1z"></path> <line class="st1" x1="408.1" y1="19.7" x2="47.9" y2="19.7"></line> <line class="st1" x1="1112.1" y1="19.7" x2="751.9" y2="19.7"></line> <path class="st0" d="M695.9,259.8c0-8.5-2.8-16.6-7.6-23.2c-4.8-6.5-11.7-11.5-19.8-13.9c-0.5-0.1-0.9-0.3-1.4-0.4 c-9.2-2.3-17-7.5-22.5-14.6c-5.5-7-8.7-15.9-8.7-25.3v-40.2c0-28.4-21.4-52.6-48.8-56.2l1,35.7c5.8,2.9,9.7,8.9,9.7,15.8 c0,9.8-8,17.8-17.8,17.8c-9.8,0-17.8-8-17.8-17.8c0-6.9,4-12.9,9.7-15.8l1-35.8c-27.8,3.4-48.8,27.6-48.8,56.1v40.3 c0,18.9-12.9,35.3-31.2,39.9c-0.5,0.1-0.9,0.2-1.4,0.4c-16.4,4.7-27.4,20-27.4,37c0,3.9-1.2,7.6-3.2,10.8h238.3 C697.1,267.5,695.9,263.7,695.9,259.8z"></path> <g class="st2"> <g> <path d="M477.8,95.9c-0.1,0-0.2,0-0.3-0.1l-10-6.1c-0.1-0.1-0.2-0.2-0.2-0.3c0-0.1,0-0.2,0.1-0.3l4.9-8.1c0.1-0.1,0.2-0.2,0.3-0.2 s0.2,0,0.3,0.1l10,6.1c0.1,0.1,0.2,0.1,0.2,0.3c0,0.1,0,0.2-0.1,0.3l-0.9,1.4c-0.1,0.1-0.2,0.2-0.3,0.2c-0.1,0-0.2,0-0.3-0.1 l-8.4-5.2l-2.7,4.5l8.4,5.2c0.1,0.1,0.2,0.2,0.2,0.3c0,0.1,0,0.2-0.1,0.3l-0.9,1.4C478,95.8,477.9,95.8,477.8,95.9z"></path> <path d="M485.7,83.6c-0.1,0-0.2,0-0.3-0.1l-9.2-7.3c-0.1-0.1-0.2-0.2-0.2-0.3s0-0.2,0.1-0.3l3-3.8c0.9-1.1,1.9-1.8,2.9-2.1 c1-0.2,2.1,0.1,3.1,0.9c1,0.8,1.5,1.7,1.5,2.8c0,1.1-0.4,2.2-1.3,3.3l-1.6,2.1l3.3,2.6c0.1,0.1,0.2,0.2,0.2,0.3s0,0.2-0.1,0.3 l-1.1,1.4C485.9,83.5,485.8,83.6,485.7,83.6z M483.7,75.6c0.4-0.5,0.6-1.1,0.6-1.6c0-0.5-0.3-0.9-0.8-1.3c-0.5-0.4-1-0.5-1.5-0.5 c-0.5,0.1-1,0.4-1.4,0.9l-1.6,2l3.1,2.4L483.7,75.6z"></path> <path d="M494.1,71.9c-1.2,0.1-2.4-0.5-3.6-1.6c-0.3-0.2-0.6-0.6-1.1-1.1c-0.5-0.5-0.8-0.9-1.1-1.1c-1.1-1.2-1.6-2.4-1.6-3.6 c0.1-1.3,0.7-2.5,1.8-3.6c1.1-1.1,2.3-1.7,3.6-1.8c1.3-0.1,2.5,0.4,3.6,1.5c0.5,0.5,0.9,0.8,1.1,1.1c0.2,0.2,0.6,0.6,1.1,1.1 c1.1,1.2,1.7,2.4,1.6,3.6c-0.1,1.2-0.7,2.4-1.8,3.6C496.6,71.3,495.4,71.9,494.1,71.9z M497.1,66.8c0-0.7-0.4-1.4-1-2.1 c-0.5-0.5-0.8-0.9-1-1.1c-0.2-0.2-0.5-0.5-1.1-1c-0.7-0.7-1.4-1-2.1-1c-0.7,0-1.3,0.3-1.9,0.8c-0.6,0.6-0.8,1.2-0.8,1.9 c0,0.7,0.3,1.4,1,2.1c0.2,0.3,0.6,0.6,1,1c0.4,0.4,0.8,0.8,1,1c0.7,0.7,1.4,1,2.1,1s1.3-0.3,1.9-0.8 C496.8,68.1,497.1,67.4,497.1,66.8z"></path> <path d="M508.7,60.7c-0.1,0-0.2-0.1-0.3-0.2l-0.8-1.1c-2.9,2.2-5.4,2.1-7.5-0.2l-0.4-0.5l-0.4-0.5c-0.9-1.3-1.1-2.5-0.8-3.8 c0.3-1.3,1.2-2.4,2.5-3.5l-0.7-0.9c-0.1-0.1-0.1-0.2-0.1-0.3c0-0.1,0.1-0.2,0.2-0.3l1.3-1c0.1-0.1,0.2-0.1,0.3-0.1 s0.2,0.1,0.3,0.2l0.7,0.9c1.4-1.1,2.7-1.6,4-1.5c1.3,0,2.5,0.6,3.5,1.8c0.1,0.1,0.3,0.3,0.5,0.6c0.1,0.2,0.2,0.3,0.3,0.5 c1.7,2.7,1.1,5.1-1.7,7.3l0.8,1.1c0.1,0.1,0.1,0.2,0.1,0.3s-0.1,0.2-0.2,0.3l-1.3,1C509,60.7,508.9,60.7,508.7,60.7z M502.4,52.6 c-0.8,0.6-1.3,1.2-1.4,1.9c-0.2,0.7,0,1.4,0.5,2.2l0.3,0.5l0.4,0.4c1.2,1.4,2.6,1.4,4.2,0.2L502.4,52.6z M509.3,52.2 c-0.1-0.1-0.2-0.3-0.4-0.5c-0.1-0.2-0.2-0.3-0.3-0.4c-0.6-0.7-1.3-1.1-2-1.1c-0.7,0-1.4,0.3-2.2,0.9l4,5.2 C510,55,510.3,53.7,509.3,52.2z"></path> <path d="M518.2,53.2c-0.1,0-0.2-0.1-0.3-0.2l-5.7-10.2c-0.1-0.1-0.1-0.2-0.1-0.3c0-0.1,0.1-0.2,0.2-0.3l1.5-0.8 c0.1-0.1,0.2-0.1,0.3,0c0.1,0,0.2,0.1,0.3,0.2l4,7.2l1-10.2c0-0.2,0.1-0.4,0.3-0.5l1.3-0.7c0.1-0.1,0.2-0.1,0.3,0 c0.1,0,0.2,0.1,0.3,0.2l5.8,10.2c0.1,0.1,0.1,0.2,0,0.3c0,0.1-0.1,0.2-0.2,0.3l-1.4,0.8c-0.1,0.1-0.2,0.1-0.3,0 c-0.1,0-0.2-0.1-0.3-0.2l-3.9-7l-1.1,10c0,0.2-0.1,0.4-0.3,0.5l-1.3,0.8C518.5,53.2,518.3,53.3,518.2,53.2z"></path> <path d="M541,45c-0.1,0-0.2-0.1-0.2-0.2l-0.8-1.9l-8,3.2c-0.1,0-0.2,0-0.3,0c-0.1,0-0.2-0.1-0.2-0.3L527,34.9c0-0.1,0-0.2,0-0.3 c0-0.1,0.1-0.2,0.2-0.2l1.5-0.6c0.1,0,0.2-0.1,0.3,0c0.1,0,0.2,0.1,0.2,0.2l3.7,9.2l4.9-2l-3.7-9.2c0-0.1,0-0.2,0-0.3 c0-0.1,0.1-0.2,0.2-0.2l1.6-0.6c0.1,0,0.2-0.1,0.3,0s0.2,0.1,0.2,0.2l3.7,9.2l0.8-0.3c0.1,0,0.2-0.1,0.3,0c0.1,0,0.2,0.1,0.2,0.2 l1.5,3.7c0,0.1,0,0.2,0,0.3c0,0.1-0.1,0.2-0.3,0.2l-1.5,0.6C541.2,45,541.1,45,541,45z"></path> <path d="M545.6,40.7c-0.1-0.1-0.2-0.2-0.2-0.3l-2.9-11.3c0-0.1,0-0.2,0-0.3c0.1-0.1,0.1-0.2,0.3-0.2l1.6-0.4c0.1,0,0.2,0,0.3,0 c0.1,0.1,0.2,0.2,0.2,0.3l2.1,8l3.6-9.6c0.1-0.2,0.2-0.4,0.4-0.4l1.5-0.4c0.1,0,0.2,0,0.3,0c0.1,0.1,0.2,0.2,0.2,0.3l2.9,11.3 c0,0.1,0,0.2,0,0.3c-0.1,0.1-0.1,0.2-0.3,0.2l-1.6,0.4c-0.1,0-0.2,0-0.3,0c-0.1-0.1-0.2-0.1-0.2-0.3l-2-7.8l-3.6,9.4 c-0.1,0.2-0.2,0.4-0.4,0.4l-1.5,0.4C545.8,40.8,545.7,40.8,545.6,40.7z"></path> <path d="M563.2,36.9c-0.1-0.1-0.1-0.2-0.2-0.3l-1.3-9.8l-3.3,0.4c-0.1,0-0.2,0-0.3-0.1c-0.1-0.1-0.2-0.2-0.2-0.3l-0.2-1.3 c0-0.1,0-0.2,0.1-0.3c0.1-0.1,0.2-0.1,0.3-0.2l9.1-1.2c0.1,0,0.2,0,0.3,0.1c0.1,0.1,0.2,0.2,0.2,0.3l0.2,1.3c0,0.1,0,0.2-0.1,0.3 c-0.1,0.1-0.2,0.2-0.3,0.2l-3.3,0.4l1.3,9.8c0,0.1,0,0.2-0.1,0.3c-0.1,0.1-0.2,0.1-0.3,0.2l-1.7,0.2 C563.4,37,563.3,36.9,563.2,36.9z"></path> </g> </g> <g class="st2"> <path d="M590.5,38.5c-0.1-0.1-0.1-0.2-0.1-0.3l0.6-3.9c0-0.1,0.1-0.2,0.2-0.3c0.1-0.1,0.2-0.1,0.3-0.1l0.4,0.1 c0.6,0.1,1-0.4,1.4-1.4c0.4-1,0.8-2.5,1-4.5l0.5-3.7c0-0.1,0.1-0.2,0.2-0.3c0.1-0.1,0.2-0.1,0.3-0.1l7.7,1.1c0.1,0,0.2,0.1,0.3,0.2 s0.1,0.2,0.1,0.3l-1.4,9.8l0.9,0.1c0.1,0,0.2,0.1,0.3,0.2s0.1,0.2,0.1,0.3l-0.6,3.9c0,0.1-0.1,0.2-0.2,0.3 c-0.1,0.1-0.2,0.1-0.3,0.1l-1.6-0.2c-0.1,0-0.2-0.1-0.3-0.2c-0.1-0.1-0.1-0.2-0.1-0.3l0.3-2l-7.2-1.1l-0.3,2c0,0.1-0.1,0.2-0.2,0.3 c-0.1,0.1-0.2,0.1-0.3,0.1l-1.7-0.2C590.7,38.6,590.6,38.6,590.5,38.5z M599.5,35.1l1.2-7.9l-3.6-0.5l-0.3,2.2 c-0.4,2.8-1,4.7-1.8,5.6L599.5,35.1z"></path> <path d="M606.5,38.6c-0.1-0.1-0.1-0.2,0-0.3l3-11.3c0-0.1,0.1-0.2,0.2-0.3c0.1-0.1,0.2-0.1,0.3,0l7.7,2.1c0.1,0,0.2,0.1,0.3,0.2 c0.1,0.1,0.1,0.2,0,0.3l-0.3,1.2c0,0.1-0.1,0.2-0.2,0.3c-0.1,0.1-0.2,0.1-0.3,0l-5.7-1.5l-0.8,3l5.3,1.4c0.1,0,0.2,0.1,0.3,0.2 c0.1,0.1,0.1,0.2,0,0.3l-0.3,1.1c0,0.1-0.1,0.2-0.2,0.3c-0.1,0.1-0.2,0.1-0.3,0l-5.3-1.4l-0.8,3.1l5.8,1.6c0.1,0,0.2,0.1,0.3,0.2 c0.1,0.1,0.1,0.2,0,0.3l-0.3,1.2c0,0.1-0.1,0.2-0.2,0.3c-0.1,0.1-0.2,0.1-0.3,0l-7.8-2.1C606.6,38.8,606.5,38.7,606.5,38.6z"></path> <path d="M623.4,44.6c0-0.1,0-0.2,0-0.3l0.5-1.2c-3.3-1.4-4.5-3.6-3.5-6.6l0.2-0.6l0.3-0.6c0.7-1.4,1.6-2.3,2.9-2.6s2.7-0.2,4.3,0.5 l0.4-1c0.1-0.1,0.1-0.2,0.2-0.2s0.2,0,0.3,0l1.5,0.6c0.1,0.1,0.2,0.1,0.2,0.2c0,0.1,0,0.2,0,0.3l-0.4,1c1.6,0.7,2.7,1.6,3.4,2.7 c0.6,1.1,0.7,2.4,0.2,3.9c-0.1,0.2-0.2,0.4-0.3,0.7c-0.1,0.2-0.2,0.4-0.2,0.5c-1.4,2.8-3.8,3.5-7.2,2.1l-0.5,1.2 c-0.1,0.1-0.1,0.2-0.2,0.2c-0.1,0-0.2,0-0.3,0l-1.5-0.6C623.5,44.8,623.4,44.7,623.4,44.6z M627.2,35.1c-0.9-0.4-1.7-0.5-2.4-0.3 c-0.7,0.2-1.2,0.7-1.6,1.6l-0.2,0.5l-0.2,0.5c-0.6,1.7,0,3,1.9,3.7L627.2,35.1z M631,40.8c0.1-0.1,0.1-0.3,0.3-0.6 c0.1-0.2,0.1-0.4,0.2-0.4c0.3-0.9,0.3-1.6-0.1-2.3c-0.3-0.6-0.9-1.1-1.9-1.5l-2.5,6.1C628.9,42.9,630.2,42.5,631,40.8z"></path> <path d="M634.6,49.1c0-0.1,0-0.2,0.1-0.3l6-10.1c0.1-0.1,0.2-0.2,0.3-0.2c0.1,0,0.2,0,0.3,0.1l1.4,0.9c0.1,0.1,0.2,0.1,0.2,0.3 c0,0.1,0,0.2-0.1,0.3l-4.2,7.1l9.3-4.2c0.2-0.1,0.4-0.1,0.6,0l1.3,0.8c0.1,0.1,0.2,0.2,0.2,0.3c0,0.1,0,0.2-0.1,0.3l-6,10.1 c-0.1,0.1-0.1,0.2-0.3,0.2c-0.1,0-0.2,0-0.3-0.1l-1.4-0.8c-0.1-0.1-0.2-0.2-0.2-0.3c0-0.1,0-0.2,0-0.3l4.1-6.9l-9.2,4.1 c-0.2,0.1-0.4,0.1-0.6,0l-1.3-0.8C634.7,49.3,634.6,49.2,634.6,49.1z"></path> <path d="M653.1,64.7c0-0.1,0-0.2,0.1-0.3l1.3-1.6l-6.8-5.3c-0.1-0.1-0.2-0.2-0.2-0.3s0-0.2,0.1-0.3l7.2-9.2 c0.1-0.1,0.2-0.2,0.3-0.2s0.2,0,0.3,0.1l1.3,1c0.1,0.1,0.2,0.2,0.2,0.3c0,0.1,0,0.2-0.1,0.3l-6.1,7.8l4.1,3.2l6.1-7.8 c0.1-0.1,0.2-0.1,0.3-0.2c0.1,0,0.2,0,0.3,0.1l1.3,1c0.1,0.1,0.2,0.2,0.2,0.3c0,0.1,0,0.2-0.1,0.3l-6.1,7.8l0.7,0.5 c0.1,0.1,0.2,0.2,0.2,0.3c0,0.1,0,0.2-0.1,0.3l-2.4,3.1c-0.1,0.1-0.2,0.2-0.3,0.2c-0.1,0-0.2,0-0.3-0.1l-1.3-1 C653.2,64.9,653.2,64.8,653.1,64.7z"></path> <path d="M659.2,66.6c0-0.1,0.1-0.2,0.1-0.3l8.3-8.2c0.1-0.1,0.2-0.1,0.3-0.1c0.1,0,0.2,0,0.3,0.1l1.2,1.2c0.1,0.1,0.1,0.2,0.1,0.3 s0,0.2-0.1,0.3l-5.9,5.8l10.1-1.7c0.2-0.1,0.4,0,0.6,0.2l1.1,1.1c0.1,0.1,0.1,0.2,0.1,0.3c0,0.1-0.1,0.2-0.1,0.3L667,74 c-0.1,0.1-0.2,0.1-0.3,0.1s-0.2,0-0.3-0.1l-1.2-1.2c-0.1-0.1-0.1-0.2-0.1-0.3c0-0.1,0-0.2,0.1-0.3l5.7-5.7l-9.9,1.6 c-0.2,0.1-0.4,0-0.6-0.2l-1.1-1.1C659.2,66.8,659.2,66.7,659.2,66.6z"></path> <path d="M671.3,79.8c0-0.1,0.1-0.2,0.2-0.3l7.8-6.1l-2-2.6c-0.1-0.1-0.1-0.2-0.1-0.3c0-0.1,0.1-0.2,0.2-0.3l1.1-0.8 c0.1-0.1,0.2-0.1,0.3-0.1c0.1,0,0.2,0.1,0.3,0.2l5.7,7.3c0.1,0.1,0.1,0.2,0.1,0.3s-0.1,0.2-0.2,0.3l-1.1,0.8 c-0.1,0.1-0.2,0.1-0.3,0.1c-0.1,0-0.2-0.1-0.3-0.2l-2-2.6l-7.8,6.1c-0.1,0.1-0.2,0.1-0.3,0.1c-0.1,0-0.2-0.1-0.3-0.2l-1-1.3 C671.3,80,671.3,79.9,671.3,79.8z"></path> </g> <path class="st0" d="M583.3,130.7l-1.8-63.2l-1.5-6l-1.5,6l-1.8,63.2c-2.6,1.2-4.4,3.9-4.4,7c0,4.3,3.5,7.7,7.7,7.7 c4.3,0,7.7-3.5,7.7-7.7C587.7,134.6,585.9,132,583.3,130.7z"></path> <rect x="579" y="18.2" class="st3" width="2" height="22.8"></rect> </svg> 