<?xml version="1.0" encoding="UTF-8"?> <!-- Generator: Adobe Illustrator 24.0.3, SVG Export Plug-In . SVG Version: 6.00 Build 0) --> <svg xmlns="http://www.w3.org/2000/svg" xmlns:xlink="http://www.w3.org/1999/xlink" id="Layer_1" x="0px" y="0px" viewBox="0 0 168 168" style="enable-background:new 0 0 168 168;" xml:space="preserve"> <g> <path d="M129.4,132.8h-8.8V124c0-1-0.8-1.9-1.9-1.9h-3.5V93.9h8.8c0,0,0.1,0,0.1,0c1,0,1.9-0.8,1.9-1.9c0-0.8-0.5-1.5-1.2-1.8 L85,63.8c-0.6-0.4-1.4-0.4-2.1,0l-40,26.7c-0.7,0.5-1,1.3-0.8,2.1c0.2,0.8,1,1.3,1.8,1.3h8.8v28.3h-3.5c-1,0-1.9,0.8-1.9,1.9v8.8 h-8.8c-1,0-1.9,0.8-1.9,1.9v10.7c0,1,0.8,1.9,1.9,1.9h90.7c1,0,1.9-0.8,1.9-1.9v-10.7C131.2,133.7,130.4,132.8,129.4,132.8z M111.5,122.2h-6.9V93.9h6.9V122.2z M93.9,122.2v-19.5c0-1-0.8-1.9-1.9-1.9H76c-1,0-1.9,0.8-1.9,1.9v19.5h-6.9V93.9h33.6v28.3H93.9 z M77.9,122.2v-17.6h12.3v17.6H77.9z M84,67.6l33.9,22.6H50.1L84,67.6z M56.5,93.9h6.9v28.3h-6.9V93.9z M51.2,125.9h65.6v6.9H51.2 V125.9z M127.5,143.5h-87v-6.9h87V143.5z"></path> <path d="M54.7,77.9c1,0,1.9-0.8,1.9-1.9V51.2h38.2h0.1h16.7V76c0,1,0.8,1.9,1.9,1.9c1,0,1.9-0.8,1.9-1.9V49.3c0-1-0.8-1.9-1.9-1.9 h-3.7c-2.2-11.7-12-20.4-23.7-21.3v-3.5c0-1-0.8-1.9-1.9-1.9c-1,0-1.9,0.8-1.9,1.9v3.5C70.4,27,60.6,35.8,58.4,47.5h-3.7 c-1,0-1.9,0.8-1.9,1.9V76C52.8,77,53.6,77.9,54.7,77.9z M84,29.8c3.5,0,7.6,6.7,8.7,17.6H75.3C76.4,36.5,80.5,29.8,84,29.8z M105.8,47.5h-9.4c-0.6-6.8-2.3-12.4-4.7-16.2C98.7,33.8,104.1,39.9,105.8,47.5z M76.3,31.2c-2.4,3.8-4.1,9.4-4.7,16.2h-9.4 C63.9,39.9,69.3,33.8,76.3,31.2z"></path> <path d="M150.7,68.8h-19.5V56.5h14.1c1,0,1.9-0.8,1.9-1.9V44c0-1-0.8-1.9-1.9-1.9h-16c-1,0-1.9,0.8-1.9,1.9v24.8H124 c-1,0-1.9,0.8-1.9,1.9c0,1,0.8,1.9,1.9,1.9h24.8v55h-14.1c-1,0-1.9,0.8-1.9,1.9c0,1,0.8,1.9,1.9,1.9h16c1,0,1.9-0.8,1.9-1.9V70.7 C152.6,69.6,151.7,68.8,150.7,68.8z M131.2,45.8h12.3v6.9h-12.3V45.8z"></path> <path d="M33.3,127.5H19.2v-55H44c1,0,1.9-0.8,1.9-1.9c0-1-0.8-1.9-1.9-1.9h-3.5V44c0-1-0.8-1.9-1.9-1.9h-16c-1,0-1.9,0.8-1.9,1.9 v10.7c0,1,0.8,1.9,1.9,1.9h14.1v12.3H17.3c-1,0-1.9,0.8-1.9,1.9v58.7c0,1,0.8,1.9,1.9,1.9h16c1,0,1.9-0.8,1.9-1.9 C35.2,128.3,34.3,127.5,33.3,127.5z M24.5,52.8v-6.9h12.3v6.9H24.5z"></path> <path d="M129.4,79.5c-1,0-1.9,0.8-1.9,1.9v5.3c0,1,0.8,1.9,1.9,1.9c1,0,1.9-0.8,1.9-1.9v-5.3C131.2,80.3,130.4,79.5,129.4,79.5z"></path> <path d="M40.5,81.3c0-1-0.8-1.9-1.9-1.9c-1,0-1.9,0.8-1.9,1.9v5.3c0,1,0.8,1.9,1.9,1.9c1,0,1.9-0.8,1.9-1.9V81.3z"></path> <path d="M63.5,60v5.3c0,1,0.8,1.9,1.9,1.9s1.9-0.8,1.9-1.9V60c0-1-0.8-1.9-1.9-1.9S63.5,59,63.5,60z"></path> <path d="M100.8,60v5.3c0,1,0.8,1.9,1.9,1.9c1,0,1.9-0.8,1.9-1.9V60c0-1-0.8-1.9-1.9-1.9C101.6,58.1,100.8,59,100.8,60z"></path> <path d="M129.4,95.5c-1,0-1.9,0.8-1.9,1.9v5.3c0,1,0.8,1.9,1.9,1.9c1,0,1.9-0.8,1.9-1.9v-5.3C131.2,96.3,130.4,95.5,129.4,95.5z"></path> <path d="M40.5,97.3c0-1-0.8-1.9-1.9-1.9c-1,0-1.9,0.8-1.9,1.9v5.3c0,1,0.8,1.9,1.9,1.9c1,0,1.9-0.8,1.9-1.9V97.3z"></path> <path d="M129.4,111.5c-1,0-1.9,0.8-1.9,1.9v5.3c0,1,0.8,1.9,1.9,1.9c1,0,1.9-0.8,1.9-1.9v-5.3C131.2,112.3,130.4,111.5,129.4,111.5 z"></path> <path d="M140,88.5c1,0,1.9-0.8,1.9-1.9v-5.3c0-1-0.8-1.9-1.9-1.9c-1,0-1.9,0.8-1.9,1.9v5.3C138.2,87.7,139,88.5,140,88.5z"></path> <path d="M138.2,102.7c0,1,0.8,1.9,1.9,1.9c1,0,1.9-0.8,1.9-1.9v-5.3c0-1-0.8-1.9-1.9-1.9c-1,0-1.9,0.8-1.9,1.9V102.7z"></path> <path d="M138.2,118.7c0,1,0.8,1.9,1.9,1.9c1,0,1.9-0.8,1.9-1.9v-5.3c0-1-0.8-1.9-1.9-1.9c-1,0-1.9,0.8-1.9,1.9V118.7z"></path> <path d="M29.8,81.3c0-1-0.8-1.9-1.9-1.9c-1,0-1.9,0.8-1.9,1.9v5.3c0,1,0.8,1.9,1.9,1.9c1,0,1.9-0.8,1.9-1.9V81.3z"></path> <path d="M29.8,97.3c0-1-0.8-1.9-1.9-1.9c-1,0-1.9,0.8-1.9,1.9v5.3c0,1,0.8,1.9,1.9,1.9c1,0,1.9-0.8,1.9-1.9V97.3z"></path> <path d="M28,111.5c-1,0-1.9,0.8-1.9,1.9v5.3c0,1,0.8,1.9,1.9,1.9c1,0,1.9-0.8,1.9-1.9v-5.3C29.8,112.3,29,111.5,28,111.5z"></path> <path d="M38.6,111.5c-1,0-1.9,0.8-1.9,1.9v5.3c0,1,0.8,1.9,1.9,1.9c1,0,1.9-0.8,1.9-1.9v-5.3C40.5,112.3,39.7,111.5,38.6,111.5z"></path> </g> </svg> 