<?xml version="1.0" encoding="UTF-8"?> <!-- Generator: Adobe Illustrator 24.0.3, SVG Export Plug-In . SVG Version: 6.00 Build 0) --> <svg xmlns="http://www.w3.org/2000/svg" xmlns:xlink="http://www.w3.org/1999/xlink" x="0px" y="0px" viewBox="0 0 200 200" style="enable-background:new 0 0 200 200;" xml:space="preserve"> <style type="text/css"> .st0{fill:#CFD7E3;} </style> <g id="bkg"> </g> <g id="Layer_1"> <g> <path class="st0" d="M137,81.9l-13.2,0l-2.2,4.1l-8.5-21.9l-5.9,17.7c-0.5,0-4.5,0-9.9,0c-0.1,0.8-0.1,1.7,0,2.6 c0.1,1.4,0.3,2.8,0.7,4.2h14l1.6-4.5l7.1,18.5l7.1-14c1.8,0,5.7,0,8.5,0c0.5-2,0.8-4.1,0.7-6.3C137,82.3,137,82.1,137,81.9z"></path> <path class="st0" d="M58.7,84.2l7.1,14l7.1-9.5h5.3c-0.1-1-0.2-2.1-0.3-3.2c-0.1-1.2-0.1-2.4,0-3.6c-5.2,0-9,0-9,0l-2.2,4.1 l-8.5-17.8l-5.9,13.7h-4.2v6.7h9L58.7,84.2z"></path> <path class="st0" d="M151.8,81.6c-0.5-8.7-4.2-17.2-11.1-23.6c-3.8-3.5-8.1-6-12.7-7.5c-3.5-1.2-7.2-1.8-10.9-1.8 c-9.3,0-18.6,3.7-25.4,11.1C85.1,67,82,76.2,82.5,85.3c0.3,4.9,1.5,9.7,3.8,14.1l-4.6,4.9l2.1,4.4l-27,24 c-8.1,7.1,0.2,18.5,8.5,18.5c2.6,0,5.2-1.1,7.3-3.9l21.9-28.7l4.6,1.7l4.6-4.9c0.9,0.4,1.7,0.7,2.6,1c3.5,1.2,7.2,1.8,10.9,1.8 c9.3,0,18.6-3.7,25.4-11.1C149.3,99.9,152.3,90.7,151.8,81.6z M135.1,100c-4.8,5.2-11.3,7.8-17.9,7.8c-2.6,0-5.2-0.4-7.7-1.2 c-3.2-1.1-6.3-2.8-8.9-5.3c-4.8-4.5-7.5-10.5-7.8-16.6c-0.3-6.4,1.8-12.8,6.5-17.9c4.8-5.2,11.3-7.8,17.9-7.8 c2.6,0,5.2,0.4,7.7,1.2c3.2,1.1,6.3,2.8,8.9,5.3c4.8,4.5,7.5,10.5,7.8,16.6C141.9,88.5,139.7,95,135.1,100z"></path> </g> </g> </svg> 