<?xml version="1.0" encoding="UTF-8"?> <!-- Generator: Adobe Illustrator 24.0.3, SVG Export Plug-In . SVG Version: 6.00 Build 0) --> <svg xmlns="http://www.w3.org/2000/svg" xmlns:xlink="http://www.w3.org/1999/xlink" id="Layer_1" x="0px" y="0px" viewBox="0 0 168 168" style="enable-background:new 0 0 168 168;" xml:space="preserve"> <g> <path d="M96.6,112.4c-11.1,0-19.5,4.1-19.5,9.5V147c0,5.4,8.4,9.5,19.5,9.5s19.5-4.1,19.5-9.5v-25.2 C116.2,116.4,107.8,112.4,96.6,112.4z M96.6,152.7c-9.6,0-15.7-3.4-15.7-5.7v-6.9c3.5,2.3,9.1,3.7,15.7,3.7 c6.6,0,12.2-1.4,15.7-3.7v6.9C112.4,149.3,106.2,152.7,96.6,152.7z M96.6,140.1c-9.6,0-15.7-3.4-15.7-5.7v-6.9 c3.5,2.3,9.1,3.7,15.7,3.7c6.6,0,12.2-1.4,15.7-3.7v6.9C112.4,136.7,106.2,140.1,96.6,140.1z M96.6,127.5c-9.6,0-15.7-3.4-15.7-5.7 s6.1-5.7,15.7-5.7s15.7,3.4,15.7,5.7S106.2,127.5,96.6,127.5z"></path> <path d="M131.9,92.2c-11.1,0-19.5,4.1-19.5,9.5v10.1h3.8v-4.4c3.5,2.3,9.1,3.7,15.7,3.7s12.2-1.4,15.7-3.7v6.9 c0,2.3-6.1,5.7-15.7,5.7c-4.5,0-8.7-0.7-11.8-2.1l-1.5,3.5c3.6,1.5,8.3,2.4,13.3,2.4c6.6,0,12.2-1.4,15.7-3.7v6.9 c0,2.3-6.1,5.7-15.7,5.7c-4.6,0-8.9-0.8-12-2.2l-1.6,3.5c3.6,1.6,8.4,2.5,13.6,2.5c6.6,0,12.2-1.4,15.7-3.7v6.9 c0,2.3-6.1,5.7-15.7,5.7c-4.5,0-8.6-0.7-11.7-2.1l-1.5,3.5c3.6,1.5,8.3,2.4,13.2,2.4c11.1,0,19.5-4.1,19.5-9.5v-37.8 C151.5,96.3,143,92.2,131.9,92.2z M131.9,107.3c-9.6,0-15.7-3.4-15.7-5.7s6.1-5.7,15.7-5.7s15.7,3.4,15.7,5.7 S141.5,107.3,131.9,107.3z"></path> <path d="M122.4,45.6v41h3.8V45.3c2.9-0.8,5-3.5,5-6.7V28.5c0-3.8-3.1-6.9-6.9-6.9h-10.1v3.8h10.1c1.7,0,3.1,1.4,3.1,3.1v10.1 c0,1.7-1.4,3.1-3.1,3.1H23.5c-1.7,0-3.1-1.4-3.1-3.1V28.5c0-1.7,1.4-3.1,3.1-3.1h15.7v5.7c0,3.8,3.1,6.9,6.9,6.9 c3.8,0,6.9-3.1,6.9-6.9V18.4c0-3.8-3.1-6.9-6.9-6.9c-3.8,0-6.9,3.1-6.9,6.9v3.1H23.5c-3.8,0-6.9,3.1-6.9,6.9v10.1 c0,3.8,3.1,6.9,6.9,6.9H122.4z M43,18.4c0-1.7,1.4-3.1,3.1-3.1s3.1,1.4,3.1,3.1v12.6c0,1.7-1.4,3.1-3.1,3.1S43,32.8,43,31.1V18.4z"></path> <path d="M25.4,119.3V51.6h-3.8v67.7c0,6.6,5.4,12,12,12h37.8v-3.8H33.6C29.1,127.5,25.4,123.8,25.4,119.3z"></path> <path d="M94.7,31.1c0,3.8,3.1,6.9,6.9,6.9s6.9-3.1,6.9-6.9V18.4c0-3.8-3.1-6.9-6.9-6.9s-6.9,3.1-6.9,6.9v3.1H58.8v3.8h35.9V31.1z M98.5,18.4c0-1.7,1.4-3.1,3.1-3.1s3.1,1.4,3.1,3.1v12.6c0,1.7-1.4,3.1-3.1,3.1s-3.1-1.4-3.1-3.1V18.4z"></path> <path d="M68.3,103.5h11.3v5.7h3.8v-5.7h11.3v3.1h3.8v-3.1h8.2v-3.8h-8.2V88.4h11.3v3.1h3.8v-5V71.4V56.3c0-1-0.9-1.9-1.9-1.9H36.1 c-1,0-1.9,0.9-1.9,1.9v15.1v15.1v15.1v15.1c0,1,0.9,1.9,1.9,1.9h37.8v-3.8h-5.7V103.5z M64.5,114.9H53.1v-11.3h11.3V114.9z M38,88.4h11.3v11.3H38V88.4z M38,73.3h11.3v11.3H38V73.3z M83.4,73.3h11.3v11.3H83.4V73.3z M79.6,84.6H68.3V73.3h11.3V84.6z M83.4,69.5V58.2h11.3v11.3H83.4z M79.6,69.5H68.3V58.2h11.3V69.5z M64.5,69.5H53.1V58.2h11.3V69.5z M64.5,73.3v11.3H53.1V73.3 H64.5z M53.1,88.4h11.3v11.3H53.1V88.4z M68.3,99.7V88.4h11.3v11.3H68.3z M94.7,99.7H83.4V88.4h11.3V99.7z M98.5,73.3h11.3v11.3 H98.5V73.3z M109.8,69.5H98.5V58.2h11.3V69.5z M38,58.2h11.3v11.3H38V58.2z M38,103.5h11.3v11.3H38V103.5z"></path> </g> </svg> 