<?xml version="1.0" encoding="UTF-8"?> <!-- Generator: Adobe Illustrator 24.0.3, SVG Export Plug-In . SVG Version: 6.00 Build 0) --> <svg xmlns="http://www.w3.org/2000/svg" xmlns:xlink="http://www.w3.org/1999/xlink" id="Layer_1" x="0px" y="0px" viewBox="0 0 154 154" style="enable-background:new 0 0 154 154;" xml:space="preserve"> <style type="text/css"> .st0{fill:none;stroke:#003578;stroke-width:5.605;stroke-linecap:round;stroke-miterlimit:10;} .st1{fill:#00A5ED;} .st2{fill:#FFAE00;} </style> <g> <g> <path class="st0" d="M42.8,65.8c0-18.9,15.3-34.2,34.2-34.2s34.2,15.3,34.2,34.2H42.8z"></path> <line class="st0" x1="77" y1="31.6" x2="77" y2="3"></line> <line class="st0" x1="41.3" y1="74.8" x2="112.7" y2="74.8"></line> <g> <line class="st0" x1="48.4" y1="74.8" x2="48.4" y2="106.1"></line> <line class="st0" x1="62.7" y1="74.8" x2="62.7" y2="106.1"></line> <line class="st0" x1="77" y1="74.8" x2="77" y2="106.1"></line> <line class="st0" x1="91.3" y1="74.8" x2="91.3" y2="106.1"></line> <line class="st0" x1="105.6" y1="74.8" x2="105.6" y2="106.1"></line> </g> <rect x="29.7" y="106.1" class="st0" width="94.7" height="44.9"></rect> <g> <g> <line class="st0" x1="42" y1="112.9" x2="42" y2="144.2"></line> <line class="st0" x1="56.2" y1="112.9" x2="56.2" y2="144.2"></line> <line class="st0" x1="70.5" y1="112.9" x2="70.5" y2="144.2"></line> <line class="st0" x1="84.8" y1="112.9" x2="84.8" y2="144.2"></line> <line class="st0" x1="99.1" y1="112.9" x2="99.1" y2="144.2"></line> </g> <line class="st0" x1="112" y1="112.9" x2="112" y2="144.2"></line> </g> </g> </g> <g> <rect x="81" y="2" class="st1" width="33" height="18.9"></rect> <ellipse class="st2" cx="97.5" cy="10.3" rx="5.9" ry="5.9"></ellipse> </g> </svg> 